<?xml version="1.0" encoding="UTF-8" standalone="no"?><svg width="2048" height="2048" enable-background="new 0 0 430 420" inkscape:version="1.3-beta (cedbd6c6ff, 2023-05-28)" sodipodi:docname="Menstrual_cycle.svg" version="1.1" viewBox="0 0 2048 2048" xml:space="preserve" id="svg526" xmlns:inkscape="http://www.inkscape.org/namespaces/inkscape" xmlns:sodipodi="http://sodipodi.sourceforge.net/DTD/sodipodi-0.dtd" xmlns:xlink="http://www.w3.org/1999/xlink" xmlns="http://www.w3.org/2000/svg" xmlns:svg="http://www.w3.org/2000/svg" xmlns:rdf="http://www.w3.org/1999/02/22-rdf-syntax-ns#" xmlns:cc="http://creativecommons.org/ns#" xmlns:dc="http://purl.org/dc/elements/1.1/"><defs id="defs528"/><title id="title2">Menstrual cycle</title><sodipodi:namedview bordercolor="#000000" borderopacity="0.25" inkscape:current-layer="g368" inkscape:cx="386.56178" inkscape:cy="1650.0267" inkscape:deskcolor="#d1d1d1" inkscape:pagecheckerboard="0" inkscape:pageopacity="0.0" inkscape:showpageshadow="2" inkscape:window-height="1377" inkscape:window-maximized="1" inkscape:window-width="3440" inkscape:window-x="-8" inkscape:window-y="-8" inkscape:zoom="0.71786715" pagecolor="#ffffff" showgrid="false" showguides="true" id="namedview6"><inkscape:grid originx="0" originy="0" type="xygrid" id="grid4" spacingy="1" spacingx="1" units="px" visible="false"/></sodipodi:namedview><g inkscape:groupmode="layer" inkscape:label="backdrop" id="g10" style="display:inline" sodipodi:insensitive="true"><rect width="2096.8" height="2048" fill="#ffffff" id="rect8" x="0" y="0"/></g><g inkscape:groupmode="layer" inkscape:label="Graphs" id="g238" style="display:inline"><polygon transform="matrix(4.7628,0,0,4.7628,0,24)" points="276.58,120.05 276.58,135.47 276.08,135.47 276.08,120.05 " stroke-width="0.20996" id="polygon12"/><path d="m 654.1,168.7 v -2.3766 h 646.14 V 168.7 Z m 680.67,0.005 v -2.3766 h 643.37 v 2.3766 z m -696.16,164.72 v -186.56 h 2.3814 v 186.56 z m 1355.8,-0.005 v -181.8 h 2.3862 v 181.8 z m -679.49,0 V 151.63 h 2.3766 v 181.79 z" id="path14"/><path d="m 773.79,685.86 v 320.7 h -2.3862 v -320.7 z m 135.06,0 v 320.7 h -2.3766 v -320.7 z m 135.4,0 v 320.7 h -2.3814 v -320.7 z m 135.05,0.005 v 320.7 h -2.3814 v -320.7 z m 135.41,-0.005 v 320.7 h -2.3862 v -320.7 z m 135.4,0 v 320.7 h -2.3814 v -320.7 z m 135.06,-0.005 v 320.7 h -2.3814 v -320.7 z m 135.39,0.01 v 320.69 h -2.3861 v -320.69 z m 135.07,0 v 320.69 h -2.3909 v -320.69 z m 134.21,52.205 v 2.3766 H 637.24 V 738.07 Z m 0,53.553 v 2.3814 H 637.24 v -2.3814 z m 0,53.4 v 2.3766 H 637.24 v -2.3766 z m 0,53.396 v 2.3766 H 637.24 v -2.3766 z m 0,53.558 v 2.3766 H 637.24 v -2.3766 z m -1353.8,55.777 v -323.08 h 1355 v 323.08 z m 2.3766,-2.3861 h 1350.2 v -318.31 h -1350.2 z" fill="#e7e8e9" inkscape:label="lower graph" id="path16"/><path d="m 777.98,361.58 v 222.26 h -2.3862 V 361.58 Z m 135.06,0 v 222.27 h -2.3814 V 361.58 Z m 135.4,-0.01 v 222.27 h -2.3814 V 361.58 Z m 135.06,0.01 v 222.26 h -2.3909 V 361.58 Z m 135.4,-0.005 v 222.26 h -2.3861 v -222.26 z m 135.4,0.005 v 222.26 h -2.3862 V 361.58 Z m 135.07,0 v 222.26 h -2.3814 V 361.58 Z m 135.4,-0.005 v 222.27 h -2.3814 v -222.26 z m 135.06,0.005 v 222.27 h -2.3957 V 361.58 Z m 134.2,54.377 v 2.3766 H 641.43 v -2.3766 z m 0,55.558 v 2.3862 H 641.43 v -2.3862 z m 0,55.567 v 2.3766 H 641.43 v -2.3766 z m -1353.8,57.944 v -224.64 h 1355 v 224.64 z m 2.3766,-2.3814 h 1350.2 v -219.87 h -1350.2 z" fill="#e7e8e9" inkscape:label="upper graph" id="path18"/><path d="m 636.63,1005 v 0.01 z m 557.65,0 H 636.64 v -4.7581 h 557.64 c 31.754,-0.048 95.099,-7.7062 155.34,-78.934 30.334,-35.878 77.581,-95.546 123.99,-146.28 46.642,-50.681 91.469,-92.698 120.35,-93.089 27.158,-0.0714 40.431,7.2728 50.29,15.822 9.9066,8.5587 16.327,17.551 31.406,22.385 31.811,10.192 94.146,35.878 144.51,109.67 49.857,73.423 110.14,167.96 170.7,167.45 v 4.7628 c -65.336,-0.5096 -124.45,-96.48 -174.62,-169.52 -49.647,-72.671 -110.75,-97.775 -142.04,-107.83 -16.474,-5.2772 -23.747,-15.341 -33.044,-23.309 -9.3399,-7.9634 -20.766,-14.617 -47.185,-14.679 -24.714,-0.40007 -70.78,40.936 -116.82,91.555 -46.261,50.567 -93.47,110.17 -123.88,146.14 -61.021,72.256 -126.06,80.62 -158.69,80.62 h -0.3144 z" fill="#5c2d91" inkscape:label="progesterone" id="path20"/><path d="m 1710,890.99 c -82.43,-62.012 -96.023,-79.548 -108.4,-80.51 -0.5668,-0.0714 -1.1383,-0.0905 -1.7289,-0.0905 -11.878,-0.22862 -25.452,14.017 -36.116,23.347 -11.55,9.6923 -79.048,62.083 -111.03,64.079 -0.2334,0.01 -0.4858,0.01 -0.7525,0.019 -17.58,-0.56201 -38.093,-27.272 -59.478,-57.058 -21.09,-29.848 -42.027,-63.269 -55.834,-77.019 -28.343,-28.443 -53.61,-43.861 -71.342,-43.756 -17.541,-0.20003 -78.114,26.548 -137.94,92.893 -60.792,67.189 -120.19,80.072 -186.53,110.11 -32.287,14.598 -55.501,19.685 -73.728,19.685 -19.656,0.01 -33.359,-5.9773 -45.742,-11.759 -5.6392,-2.6576 -15.822,-5.0486 -26.695,-5.0295 -12.812,-0.01 -26.514,3.2625 -35.707,12.493 -10.307,10.045 -35.083,14.941 -60.459,18.051 -25.324,2.9863 -50.967,3.6816 -61.883,3.6816 v -4.7628 c 10.735,0 36.297,-0.69537 61.321,-3.6531 24.981,-2.8482 49.714,-8.4682 57.649,-16.684 10.535,-10.497 25.524,-13.874 39.079,-13.888 11.578,0.01 22.171,2.4386 28.715,5.4772 12.331,5.7487 25.043,11.297 43.722,11.307 17.318,0 39.869,-4.839 71.766,-19.251 67.017,-30.301 125.09,-42.808 184.96,-108.98 60.826,-67.017 120.91,-94.26 141.47,-94.46 20.366,0.11907 45.913,16.446 74.719,45.156 14.569,14.607 35.278,47.876 56.344,77.624 20.752,29.806 42.875,55.601 55.601,55.048 0.1667,0 0.3715,-0.01 0.5477,-0.01 28.391,-1.1859 97.452,-53.577 108.12,-62.936 10.492,-8.8302 23.881,-24.271 39.217,-24.5 0.743,0 1.5145,0.0286 2.2813,0.12859 16.222,2.2052 28.039,19.604 110.71,81.425 78.091,58.611 185.96,88.883 264.07,88.85 3.8722,0 7.6919,-0.081 11.445,-0.21908 l 0.162,4.758 c -3.8007,0.14765 -7.6681,0.21909 -11.612,0.22862 -79.267,-0.0238 -187.73,-30.453 -266.93,-89.798 z" fill="#8f9194" inkscape:label="oestrogen" id="path22"/><path d="m 1696.7,969.25 c -26.305,-0.01 -168.85,0.019 -187.25,-2.3957 -17.665,-2.3671 -120.11,-9.5018 -160.91,-17.889 -22.195,-4.8962 -34.102,-33.482 -41.565,-62.931 -7.3537,-29.582 -9.7446,-60.626 -10.345,-71.442 -0.8335,-15.231 -0.5097,-67.327 -4.3437,-97.109 -1.1859,-9.8304 -3.2101,-17.418 -4.92,-19.275 -0.4286,-0.5001 -0.4953,-0.45247 -0.5858,-0.46199 h -0.1 c -1.005,-0.21909 -3.3911,1.686 -5.6058,7.0823 -2.2242,5.2391 -4.3389,13.145 -6.3821,23.019 -4.077,19.756 -7.9158,47.437 -12.617,78.634 -9.8018,63.755 -42.751,120.97 -65.498,133.89 -8.0872,4.3246 -30.591,6.6536 -59.568,8.3873 -28.848,1.6479 -63.602,2.3195 -94.365,2.329 -33.72,-0.01 -62.507,-0.80968 -73.723,-2.0956 -12.012,-1.3907 -33.663,-2.067 -57.406,-2.067 -36.44,0 -78.053,1.586 -97.971,4.4342 -33.673,4.7961 -152.82,6.0011 -176.2,9.5303 l -0.70966,-4.7152 c 24.252,-3.615 143.23,-4.7961 176.24,-9.5256 20.461,-2.9196 62.016,-4.4866 98.642,-4.4961 23.862,0.01 45.523,0.66203 57.949,2.0956 10.697,1.2431 39.60296,2.067 73.18496,2.067 30.682,0 65.388,-0.68584 94.098,-2.3195 28.577,-1.5574 51.752,-4.4246 57.525,-7.7967 20.113,-10.888 53.843,-67.989 63.088,-130.44 7.0965,-46.809 12.074,-85.559 19.342,-102.8 2.4528,-5.6296 5.1723,-9.7732 9.9875,-9.9971 0.1905,0 0.4525,0.01 0.6668,0.0429 3.2387,0.50962 4.6152,3.1196 5.8535,6.0678 1.2145,3.072 2.1528,7.1347 2.972,12.002 1.605,9.7113 2.61,22.609 3.2815,36.121 1.3336,27 1.3431,56.558 1.929,67.117 0.5905,10.616 2.9672,41.489 10.202,70.546 7.1346,29.196 19.627,55.977 37.916,59.421 40.165,8.2777 142.54,15.431 160.58,17.832 17.322,2.3385 160.54,2.3671 186.63,2.3576 24.171,0.01 198.7,11.026 240.73,11.026 3.8721,0 6.6536,-0.10954 7.7776,-0.281 23.5,-3.453 38.841,-11.902 42.827,-21.233 l 4.3437,1.9289 c -5.5391,12.093 -22.333,20.318 -46.48,24.019 -1.7051,0.22862 -4.4818,0.31911 -8.4682,0.31911 -42.375,0.0143 -217.01,-11.016 -240.74,-11.007 z" fill="#ed3293" inkscape:label="lh" id="path24"/><path d="m 1847.6,995.61 c -12.745,0 -24.905,-1.0145 -36.621,-1.3669 -39.212,-1.1859 -211.93,-3.5721 -244.01,-3.5721 -32.377,0 -160.92,-9.5208 -208.37,-9.5208 -49.195,0.10002 -62.088,-37.555 -65.469,-63.974 -2.2385,-16.736 -8.0824,-23.19 -12.112,-22.847 -2.3337,-0.0286 -5.4581,1.7241 -8.6063,6.0583 -4.2056,5.5772 -8.6397,24.309 -14.408,41.627 -5.9916,17.289 -13.021,34.216 -26.462,36.721 -1.0478,0.16193 -2.2195,0.22861 -3.5293,0.22861 -31.487,-0.10002 -164.71,-40.979 -180.84,-45.542 -10.635,-3.0625 -36.602,-5.7487 -61.616,-5.7296 -12.531,0 -24.871,0.66203 -35.007,2.229 -7.0251,1.0669 -17.098,1.4765 -28.777,1.4765 -41.689,-0.01 -103.27,-5.2772 -110.04,-6.2392 -6.8536,-1.0145 -31.463,-8.2206 -49.104,-8.1968 -5.1772,-0.01 -9.6637,0.65251 -12.674,2.0575 -3.2387,1.4479 -7.6728,1.8384 -12.912,1.867 -8.8588,-0.01 -19.889,-1.3669 -28.967,-2.8767 -0.68107,-0.11907 -1.4765,-0.18099 -2.3576,-0.17146 -14.507,-0.14765 -48.39,16.775 -68.508,25.8 l -1.9242,-4.3437 c 20.209,-8.9112 53.358,-26.067 70.437,-26.219 1.0907,0 2.148,0.0714 3.153,0.2429 8.9017,1.486 19.785,2.81 28.177,2.81 4.9152,0.0286 9.0302,-0.5239 10.926,-1.4336 4.0531,-1.8575 9.1112,-2.4814 14.66,-2.4862 18.613,0.01 43.756,7.4157 49.776,8.2444 6.2393,0.90017 68.136,6.2012 109.37,6.2012 11.55,0 21.514,-0.42865 28.053,-1.4336 10.497,-1.6146 23.023,-2.2766 35.726,-2.2766 25.424,0.019 51.31,2.6195 62.916,5.9202 15.898,4.5818 150.11,45.461 179.53,45.361 1.1335,0 2.0861,-0.0715 2.81,-0.18099 9.2017,-1.0621 17.046,-16.284 22.671,-33.53 5.844,-17.208 9.7399,-35.388 15.07,-42.913 3.6006,-4.939 7.8062,-7.9777 12.455,-8.0158 8.7016,0.33816 14.417,9.8399 16.827,26.957 3.7626,25.976 14.688,59.759 60.754,59.859 47.79,0 176.44,9.5208 208.37,9.5208 32.216,0 204.8,2.3814 244.17,3.5721 11.878,0.36197 23.99,1.3574 36.469,1.3574 29.077,-0.0381 60.173,-5.2486 96.546,-36.583 28.42,-21.861 43.289,-23.128 46.342,-23.128 0.3286,0 0.5382,0.019 0.6287,0.0286 l -0.524,4.7247 h -0.1 c -1.7003,0 -15.565,0.70013 -43.337,22.061 -36.916,31.925 -69.675,37.655 -99.242,37.655 h -0.3191 z" fill="#00c0f3" inkscape:label="fsh" id="path26"/><path d="m 642.82,490.79 c 5.9868,5.0771 15.355,23.933 41.574,24.104 5.3772,0 11.545,-0.82396 18.665,-2.7862 9.1398,-2.5386 18.156,-3.4911 26.857,-3.4911 26.643,0.0286 50.519,8.854 65.836,8.7778 3.715,0.01 6.8441,-0.49057 9.3922,-1.6051 11.597,-5.0676 18.589,-7.2156 24.819,-7.2347 4.0627,0 7.6252,0.96208 11.497,2.429 1.6384,0.60011 3.1434,0.80015 4.8771,0.80015 3.0291,0.019 6.7584,-0.71442 11.797,-0.72394 6.0964,-0.01 13.993,1.1335 25.109,5.9106 4.0436,1.7336 7.3538,2.3576 10.24,2.3671 10.192,0.281 16.555,-8.8683 29.324,-9.1684 4.4532,-0.01 9.4922,1.286 15.408,4.5246 25.619,14.031 73.352,25.962 96.494,25.9 20.251,0.10954 64.85,-18.689 84.716,-18.818 2.5481,0.01 4.7961,0.29053 6.7536,1.1764 8.2349,3.7721 31.015,8.8969 55.125,8.8683 11.774,0 23.904,-1.1907 34.93,-4.2341 5.5534,-1.5336 10.559,-2.2195 15.079,-2.2195 24.857,0 33.982,1.5574 38.788,9.2112 3.4102,5.5153 3.3197,11.588 4.1865,15.679 1.1717,4.1341 1.2907,5.5058 6.8918,5.8201 1.8336,-0.11907 2.2766,-0.51914 3.1768,-2.4957 0.762,-1.9766 37.536,-101.02 40.912,-121.73 3.5388,-22.171 16.622,-35.302 37.659,-38.864 10.088,-1.8765 10.721,-3.2196 11.526,-4.3341 0.9525,-1.7336 3.1005,-4.8056 10.973,-6.3583 2.972,-0.68108 6.7727,-0.89541 11.226,-0.90017 13.102,0.01 31.896,1.9861 47.142,1.9861 9.7971,0.0381 18.175,-0.94304 21.928,-3.2006 10.402,-5.9487 33.587,-8.6492 59.154,-8.7064 13.317,0 27.2,0.79062 39.988,2.4481 37.178,4.8152 88.354,19.07 124.8,20.223 6.1059,0.20004 12.264,0.26196 18.456,0.26196 12.374,0 24.876,-0.27148 37.407,-0.27148 18.813,0 37.697,0.60011 56.358,3.6102 22.538,3.6435 37.021,5.039 46.056,5.0248 5.6916,0.01 9.2208,-0.58106 11.021,-1.3145 3.7579,-1.386 16.155,-11.045 30.725,-11.054 4.9438,-0.01 10.207,1.124 15.379,4.0436 9.2017,5.1152 14.307,5.0247 19.966,5.0581 5.6344,-0.0381 11.955,0.081 20.628,5.7392 17.241,11.126 36.535,36.607 36.635,36.688" fill="none" stroke="#0072b0" stroke-miterlimit="10" inkscape:label="temperature" id="path28"/><switch transform="matrix(4.7628,0,0,4.7628,0,24)" fill="#000000" font-family="sans-serif" font-size="10.667px" stroke-linecap="round" stroke-linejoin="round" stroke-width="0.79365" text-anchor="middle" style="line-height:1;-inkscape-stroke:none" id="switch46"><text x="204.98471" y="50.434921" stop-color="#000000" text-align="center" style="line-height:1;-inkscape-stroke:none" lang="en" systemLanguage="fr" xml:space="preserve" id="text32"><tspan x="204.98471" y="50.434921" stroke-width="0.79365" sodipodi:role="line" id="tspan30">PHASE FOLLICULAIRE</tspan></text><text x="204.98471" y="50.434921" stop-color="#000000" text-align="center" style="line-height:1;-inkscape-stroke:none" lang="en" systemLanguage="ru" xml:space="preserve" id="text36"><tspan x="204.98471" y="50.434921" stroke-width="0.79365" sodipodi:role="line" id="tspan34">Фолликулярная фаза</tspan></text><text x="204.98471" y="50.434921" stop-color="#000000" text-align="center" style="line-height:1;-inkscape-stroke:none" lang="en" systemLanguage="he" xml:space="preserve" id="text40"><tspan x="204.98471" y="50.434921" stroke-width="0.79365" sodipodi:role="line" id="tspan38">השלב הפוליקולרי</tspan></text><text x="204.98471" y="50.434921" stop-color="#000000" text-align="center" style="line-height:1;-inkscape-stroke:none" lang="en" xml:space="preserve" id="text44-it" systemLanguage="it"><tspan x="204.98471" y="50.434921" stroke-width="0.79365" sodipodi:role="line" id="tspan42-it">FASE FOLLICOLARE</tspan></text><text x="204.98471" y="50.434921" stop-color="#000000" text-align="center" style="line-height:1;-inkscape-stroke:none" lang="en" xml:space="preserve" id="text44-pt" systemLanguage="pt"><tspan x="204.98471" y="50.434921" stroke-width="0.79365" sodipodi:role="line" id="tspan42-pt">FASE FOLICULAR</tspan></text><text x="204.98471" y="50.434921" stop-color="#000000" text-align="center" style="line-height:1;-inkscape-stroke:none" lang="en" xml:space="preserve" id="text44"><tspan x="204.98471" y="50.434921" stroke-width="0.79365" sodipodi:role="line" id="tspan42">FOLLICULAR PHASE</tspan></text></switch><switch transform="matrix(4.7628,0,0,4.7628,0,24)" fill="#000000" font-family="sans-serif" font-size="10.667px" stroke-linecap="round" stroke-linejoin="round" stroke-width="0.79365" text-anchor="middle" style="line-height:1;-inkscape-stroke:none" id="switch64"><text x="347.6077" y="50.434921" stop-color="#000000" text-align="center" style="line-height:1;-inkscape-stroke:none" lang="en" systemLanguage="fr" xml:space="preserve" id="text50"><tspan x="349.30307" y="50.434921" stroke-width="0.79365" sodipodi:role="line" id="tspan48">PHASE LUTÉALE </tspan></text><text x="347.6077" y="50.434921" stop-color="#000000" text-align="center" style="line-height:1;-inkscape-stroke:none" lang="en" systemLanguage="ru" xml:space="preserve" id="text54"><tspan x="347.6077" y="50.434921" stroke-width="0.79365" sodipodi:role="line" id="tspan52">Лютеиновая фаза</tspan></text><text x="347.6077" y="50.434921" stop-color="#000000" text-align="center" style="line-height:1;-inkscape-stroke:none" lang="en" systemLanguage="he" xml:space="preserve" id="text58"><tspan x="347.6077" y="50.434921" stroke-width="0.79365" sodipodi:role="line" id="tspan56">השלב הלוטאלי</tspan></text><text x="347.6077" y="50.434921" stop-color="#000000" text-align="center" style="line-height:1;-inkscape-stroke:none" lang="en" xml:space="preserve" id="text62-it" systemLanguage="it"><tspan x="347.6077" y="50.434921" stroke-width="0.79365" sodipodi:role="line" id="tspan60-it">FASE LUTEINICA</tspan></text><text x="347.6077" y="50.434921" stop-color="#000000" text-align="center" style="line-height:1;-inkscape-stroke:none" lang="en" xml:space="preserve" id="text62-pt" systemLanguage="pt"><tspan x="347.6077" y="50.434921" stroke-width="0.79365" sodipodi:role="line" id="tspan60-pt">FASE LUTEÍNICA</tspan></text><text x="347.6077" y="50.434921" stop-color="#000000" text-align="center" style="line-height:1;-inkscape-stroke:none" lang="en" xml:space="preserve" id="text62"><tspan x="347.6077" y="50.434921" stroke-width="0.79365" sodipodi:role="line" id="tspan60">LUTEAL PHASE</tspan></text></switch><switch transform="matrix(4.7628,0,0,4.7628,0,24)" stroke-width="0.20996" style="line-height:1;-inkscape-stroke:none" id="switch70"><text x="134.23924" y="20.999966" fill="#000000" font-family="sans-serif" font-size="10.667px" stop-color="#000000" stroke-linecap="round" stroke-linejoin="round" stroke-width="0.79365" text-align="center" text-anchor="middle" style="line-height:1;-inkscape-stroke:none" lang="en" xml:space="preserve" id="text68"><tspan x="134.23924" y="20.999966" stroke-width="0.79365" sodipodi:role="line" id="tspan66">1</tspan></text></switch><switch transform="matrix(4.7628,0,0,4.7628,0,24)" stroke-width="0.20996" style="line-height:1;-inkscape-stroke:none" id="switch76"><text x="206.96198" y="20.999966" fill="#000000" font-family="sans-serif" font-size="10.667px" stop-color="#000000" stroke-linecap="round" stroke-linejoin="round" stroke-width="0.79365" text-align="center" text-anchor="middle" style="line-height:1;-inkscape-stroke:none" lang="en" xml:space="preserve" id="text74"><tspan x="206.96198" y="20.999966" stroke-width="0.79365" sodipodi:role="line" id="tspan72">7</tspan></text></switch><switch transform="matrix(4.7628,0,0,4.7628,0,24)" stroke-width="0.20996" style="line-height:1;-inkscape-stroke:none" id="switch82"><text x="276.04504" y="20.999966" fill="#000000" font-family="sans-serif" font-size="10.667px" stop-color="#000000" stroke-linecap="round" stroke-linejoin="round" stroke-width="0.79365" text-align="center" text-anchor="middle" style="line-height:1;-inkscape-stroke:none" lang="en" xml:space="preserve" id="text80"><tspan x="276.04504" y="20.999966" stroke-width="0.79365" sodipodi:role="line" id="tspan78">14</tspan></text></switch><switch transform="matrix(4.7628,0,0,4.7628,0,24)" stroke-width="0.20996" style="line-height:1;-inkscape-stroke:none" id="switch88"><text x="347.89157" y="21.070278" fill="#000000" font-family="sans-serif" font-size="10.667px" stop-color="#000000" stroke-linecap="round" stroke-linejoin="round" stroke-width="0.79365" text-align="center" text-anchor="middle" style="line-height:1;-inkscape-stroke:none" lang="en" xml:space="preserve" id="text86"><tspan x="347.89157" y="21.070278" stroke-width="0.79365" sodipodi:role="line" id="tspan84">21</tspan></text></switch><switch transform="matrix(4.7628,0,0,4.7628,0,24)" stroke-width="0.20996" style="line-height:1;-inkscape-stroke:none" id="switch94"><text x="418.97345" y="20.994757" fill="#000000" font-family="sans-serif" font-size="10.667px" stop-color="#000000" stroke-linecap="round" stroke-linejoin="round" stroke-width="0.79365" text-align="center" text-anchor="middle" style="line-height:1;-inkscape-stroke:none" lang="en" xml:space="preserve" id="text92"><tspan x="418.97345" y="20.994757" stroke-width="0.79365" sodipodi:role="line" id="tspan90">28</tspan></text></switch><switch transform="matrix(4.7628,0,0,4.7628,41.043,24)" fill="#000000" font-family="sans-serif" font-size="10.667px" stroke-linecap="round" stroke-linejoin="round" stroke-width="0.79365" text-anchor="end" style="line-height:1;-inkscape-stroke:none" id="switch120"><text x="115.14216" y="93.469406" stop-color="#000000" text-align="end" style="line-height:1;-inkscape-stroke:none" lang="en" systemLanguage="fr" xml:space="preserve" id="text100"><tspan x="115.14216" y="93.469406" sodipodi:role="line" id="tspan96">TEMPÉRATURE</tspan><tspan x="115.14216" y="104.13641" sodipodi:role="line" id="tspan98">CORPORELLE BASAL</tspan></text><text x="115.14216" y="93.469406" stop-color="#000000" text-align="end" style="line-height:1;-inkscape-stroke:none" lang="en" systemLanguage="ru" xml:space="preserve" id="text106"><tspan x="115.14216" y="93.469406" sodipodi:role="line" id="tspan102">Базальная</tspan><tspan x="115.14216" y="104.13641" sodipodi:role="line" id="tspan104">температура тела</tspan></text><text x="115.14216" y="93.469406" stop-color="#000000" text-align="end" style="line-height:1;-inkscape-stroke:none" lang="en" systemLanguage="he" xml:space="preserve" id="text112"><tspan x="115.14216" y="93.469406" sodipodi:role="line" id="tspan108">טמפרטורת בסיס</tspan><tspan x="115.14216" y="104.13641" sodipodi:role="line" id="tspan110">של הגוף</tspan></text><text x="115.14216" y="93.469406" stop-color="#000000" text-align="end" style="line-height:1;-inkscape-stroke:none" lang="en" xml:space="preserve" id="text118-it" systemLanguage="it"><tspan x="115.14216" y="93.469406" sodipodi:role="line" id="tspan114-it">TEMPERATURA</tspan><tspan x="115.14216" y="104.13641" sodipodi:role="line" id="tspan116-it">BASALE</tspan></text><text x="115.14216" y="93.469406" stop-color="#000000" text-align="end" style="line-height:1;-inkscape-stroke:none" lang="en" xml:space="preserve" id="text118-pt" systemLanguage="pt"><tspan x="115.14216" y="93.469406" sodipodi:role="line" id="tspan114-pt">TEMPERATURA</tspan><tspan x="115.14216" y="104.13641" sodipodi:role="line" id="tspan116-pt">CORPORAL BASAL</tspan></text><text x="115.14216" y="93.469406" stop-color="#000000" text-align="end" style="line-height:1;-inkscape-stroke:none" lang="en" xml:space="preserve" id="text118"><tspan x="115.14216" y="93.469406" sodipodi:role="line" id="tspan114">BASAL BODY</tspan><tspan x="115.14216" y="104.13641" sodipodi:role="line" id="tspan116">TEMPERATURE</tspan></text></switch><switch transform="matrix(4.7628,0,0,4.7628,41.043,24)" stroke-width="0.20996" style="line-height:1;font-variation-settings:normal;-inkscape-stroke:none" id="switch126"><text x="116.17906" y="122.41653" fill="#8b8d90" font-family="sans-serif" font-size="10.667px" stop-color="#000000" stroke-width="0.20996" text-align="end" text-anchor="end" style="line-height:1;font-variation-settings:normal;-inkscape-stroke:none" lang="en" xml:space="preserve" id="text124"><tspan x="116.17906" y="122.41653" stroke-width="0.20996" sodipodi:role="line" id="tspan122">36.4°</tspan></text></switch><switch transform="matrix(4.7628,0,0,4.7628,41.043,24)" fill="#000000" font-family="sans-serif" font-size="10.667px" stroke-linecap="round" stroke-linejoin="round" stroke-width="0.79365" text-anchor="end" style="line-height:1;-inkscape-stroke:none" id="switch144"><text x="115.22028" y="149.06847" stop-color="#000000" text-align="end" style="line-height:1;-inkscape-stroke:none" lang="en" systemLanguage="fr" xml:space="preserve" id="text130"><tspan x="115.22028" y="149.06847" stroke-width="0.79365" sodipodi:role="line" id="tspan128">NIVEAUX HORMONAUX</tspan></text><text x="115.22028" y="149.06847" stop-color="#000000" text-align="end" style="line-height:1;-inkscape-stroke:none" lang="en" systemLanguage="ru" xml:space="preserve" id="text134"><tspan x="115.22028" y="149.06847" stroke-width="0.79365" sodipodi:role="line" id="tspan132">Уровень гормонов</tspan></text><text x="115.22028" y="149.06847" stop-color="#000000" text-align="end" style="line-height:1;-inkscape-stroke:none" lang="en" systemLanguage="he" xml:space="preserve" id="text138"><tspan x="115.22028" y="149.06847" stroke-width="0.79365" sodipodi:role="line" id="tspan136">רמת הורמון</tspan></text><text x="115.22028" y="149.06847" stop-color="#000000" text-align="end" style="line-height:1;-inkscape-stroke:none" lang="en" xml:space="preserve" id="text142-it" systemLanguage="it"><tspan x="115.22028" y="149.06847" stroke-width="0.79365" sodipodi:role="line" id="tspan140-it">LIVELLI ORMONALI</tspan></text><text x="115.22028" y="149.06847" stop-color="#000000" text-align="end" style="line-height:1;-inkscape-stroke:none" lang="en" xml:space="preserve" id="text142-pt" systemLanguage="pt"><tspan x="115.22028" y="149.06847" stroke-width="0.79365" sodipodi:role="line" id="tspan140-pt">NÍVEIS HORMONAIS</tspan></text><text x="115.22028" y="149.06847" stop-color="#000000" text-align="end" style="line-height:1;-inkscape-stroke:none" lang="en" xml:space="preserve" id="text142"><tspan x="115.22028" y="149.06847" stroke-width="0.79365" sodipodi:role="line" id="tspan140">HORMONE LEVEL</tspan></text></switch><switch transform="matrix(4.7628,0,0,4.7628,41.043,24)" fill="#00c0f3" font-family="sans-serif" font-size="10.667px" stroke-width="0.20996" text-anchor="end" style="line-height:1;font-variation-settings:normal;-inkscape-stroke:none" id="switch158"><text x="116.20987" y="167.0024" stop-color="#000000" text-align="end" style="line-height:1;font-variation-settings:normal;-inkscape-stroke:none" lang="en" systemLanguage="ru" xml:space="preserve" id="text148"><tspan x="116.20987" y="167.0024" stroke-width="0.20996" sodipodi:role="line" id="tspan146">ФСГ</tspan></text><text x="116.20987" y="167.0024" stop-color="#000000" text-align="end" style="line-height:1;font-variation-settings:normal;-inkscape-stroke:none" lang="en" systemLanguage="he" xml:space="preserve" id="text152"><tspan x="116.20987" y="167.0024" stroke-width="0.20996" sodipodi:role="line" id="tspan150">הורמון מגרה זקיק</tspan></text><text x="116.20987" y="167.0024" stop-color="#000000" text-align="end" style="line-height:1;font-variation-settings:normal;-inkscape-stroke:none" lang="en" xml:space="preserve" id="text156"><tspan x="116.20987" y="167.0024" stroke-width="0.20996" sodipodi:role="line" id="tspan154">FSH</tspan></text></switch><switch transform="matrix(4.7628,0,0,4.7628,41.043,24)" fill="#ed3293" font-family="sans-serif" font-size="10.667px" stroke-width="0.20996" text-anchor="end" style="line-height:1;font-variation-settings:normal;-inkscape-stroke:none" id="switch172"><text x="116.20987" y="179.19247" stop-color="#000000" text-align="end" style="line-height:1;font-variation-settings:normal;-inkscape-stroke:none" lang="en" systemLanguage="ru" xml:space="preserve" id="text162"><tspan x="116.20987" y="179.19247" stroke-width="0.20996" sodipodi:role="line" id="tspan160">ЛГ</tspan></text><text x="116.20987" y="179.19247" stop-color="#000000" text-align="end" style="line-height:1;font-variation-settings:normal;-inkscape-stroke:none" lang="en" systemLanguage="he" xml:space="preserve" id="text166"><tspan x="116.20987" y="179.19247" stroke-width="0.20996" sodipodi:role="line" id="tspan164">הורמון מחלמן</tspan></text><text x="116.20987" y="179.19247" stop-color="#000000" text-align="end" style="line-height:1;font-variation-settings:normal;-inkscape-stroke:none" lang="en" xml:space="preserve" id="text170"><tspan x="116.20987" y="179.19247" stroke-width="0.20996" sodipodi:role="line" id="tspan168">LH</tspan></text></switch><switch transform="matrix(4.7628,0,0,4.7628,41.043,24)" fill="#848688" font-family="sans-serif" font-size="10.667px" stroke-width="0.20996" text-anchor="end" style="line-height:1;font-variation-settings:normal;-inkscape-stroke:none" id="switch194"><text x="116.20987" y="191.38257" stop-color="#000000" text-align="end" style="line-height:1;font-variation-settings:normal;-inkscape-stroke:none" lang="en" systemLanguage="en-gb" xml:space="preserve" id="text176"><tspan x="116.20987" y="191.38257" stroke-width="0.20996" sodipodi:role="line" id="tspan174">OESTROGEN</tspan></text><text x="116.20987" y="191.38257" stop-color="#000000" text-align="end" style="line-height:1;font-variation-settings:normal;-inkscape-stroke:none" lang="en" systemLanguage="fr" xml:space="preserve" id="text180"><tspan x="116.20987" y="191.38257" stroke-width="0.20996" sodipodi:role="line" id="tspan178">ESTROGENE</tspan></text><text x="116.20987" y="191.38257" stop-color="#000000" text-align="end" style="line-height:1;font-variation-settings:normal;-inkscape-stroke:none" lang="en" systemLanguage="ru" xml:space="preserve" id="text184"><tspan x="116.20987" y="191.38257" stroke-width="0.20996" sodipodi:role="line" id="tspan182">Эстрогены</tspan></text><text x="116.20987" y="191.38257" stop-color="#000000" text-align="end" style="line-height:1;font-variation-settings:normal;-inkscape-stroke:none" lang="en" systemLanguage="he" xml:space="preserve" id="text188"><tspan x="116.20987" y="191.38257" stroke-width="0.20996" sodipodi:role="line" id="tspan186">אסטרוגן</tspan></text><text x="116.20987" y="191.38257" stop-color="#000000" text-align="end" style="line-height:1;font-variation-settings:normal;-inkscape-stroke:none" lang="en" xml:space="preserve" id="text192-it" systemLanguage="it"><tspan x="116.20987" y="191.38257" stroke-width="0.20996" sodipodi:role="line" id="tspan190-it">ESTROGENI</tspan></text><text x="116.20987" y="191.38257" stop-color="#000000" text-align="end" style="line-height:1;font-variation-settings:normal;-inkscape-stroke:none" lang="en" xml:space="preserve" id="text192-pt" systemLanguage="pt"><tspan x="116.20987" y="191.38257" stroke-width="0.20996" sodipodi:role="line" id="tspan190-pt">ESTROGÉNIO</tspan></text><text x="116.20987" y="191.38257" stop-color="#000000" text-align="end" style="line-height:1;font-variation-settings:normal;-inkscape-stroke:none" lang="en" xml:space="preserve" id="text192"><tspan x="116.20987" y="191.38257" stroke-width="0.20996" sodipodi:role="line" id="tspan190">ESTROGEN</tspan></text></switch><switch transform="matrix(4.7628,0,0,4.7628,41.043,20.299)" fill="#5c2d91" font-family="sans-serif" font-size="10.667px" stroke-width="0.20996" text-anchor="end" style="line-height:1;font-variation-settings:normal;-inkscape-stroke:none" id="switch212"><text x="115.84528" y="203.57265" stop-color="#000000" text-align="end" style="line-height:1;font-variation-settings:normal;-inkscape-stroke:none" lang="en" systemLanguage="fr" xml:space="preserve" id="text198"><tspan x="115.84528" y="203.57265" stroke-width="0.20996" sodipodi:role="line" id="tspan196">PROGÉSTERONE</tspan></text><text x="115.84528" y="203.57265" stop-color="#000000" text-align="end" style="line-height:1;font-variation-settings:normal;-inkscape-stroke:none" lang="en" systemLanguage="ru" xml:space="preserve" id="text202"><tspan x="115.84528" y="203.57265" stroke-width="0.20996" sodipodi:role="line" id="tspan200">Прогестерон</tspan></text><text x="115.84528" y="203.57265" stop-color="#000000" text-align="end" style="line-height:1;font-variation-settings:normal;-inkscape-stroke:none" lang="en" systemLanguage="he" xml:space="preserve" id="text206"><tspan x="115.84528" y="203.57265" stroke-width="0.20996" sodipodi:role="line" id="tspan204">פרוגסטרון</tspan></text><text x="115.84528" y="203.57265" stop-color="#000000" text-align="end" style="line-height:1;font-variation-settings:normal;-inkscape-stroke:none" lang="en" xml:space="preserve" id="text210-pt" systemLanguage="pt"><tspan x="115.84528" y="203.57265" stroke-width="0.20996" sodipodi:role="line" id="tspan208-pt">PROGESTERONA</tspan></text><text x="115.84528" y="203.57265" stop-color="#000000" text-align="end" style="line-height:1;font-variation-settings:normal;-inkscape-stroke:none" lang="en" xml:space="preserve" id="text210"><tspan x="115.84528" y="203.57265" stroke-width="0.20996" sodipodi:role="line" id="tspan208">PROGESTERONE</tspan></text></switch><switch transform="matrix(4.7628,0,0,4.7628,41.043,24)" fill="#000000" font-family="sans-serif" font-size="10.667px" stroke-linecap="round" stroke-linejoin="round" stroke-width="0.79365" text-anchor="end" style="line-height:1;-inkscape-stroke:none" id="switch230"><text x="115.75674" y="20.994757" stop-color="#000000" text-align="end" style="line-height:1;-inkscape-stroke:none" lang="en" systemLanguage="fr" xml:space="preserve" id="text216"><tspan x="115.75674" y="20.994757" stroke-width="0.79365" sodipodi:role="line" id="tspan214">JOURS</tspan></text><text x="115.75674" y="20.994757" stop-color="#000000" text-align="end" style="line-height:1;-inkscape-stroke:none" lang="en" systemLanguage="ru" xml:space="preserve" id="text220"><tspan x="115.75674" y="20.994757" stroke-width="0.79365" sodipodi:role="line" id="tspan218">Дни</tspan></text><text x="115.75674" y="20.994757" stop-color="#000000" text-align="end" style="line-height:1;-inkscape-stroke:none" lang="en" systemLanguage="he" xml:space="preserve" id="text224"><tspan x="115.75674" y="20.994757" stroke-width="0.79365" sodipodi:role="line" id="tspan222">&apos;מים</tspan></text><text x="115.75674" y="20.994757" stop-color="#000000" text-align="end" style="line-height:1;-inkscape-stroke:none" lang="en" xml:space="preserve" id="text228-it" systemLanguage="it"><tspan x="115.75674" y="20.994757" stroke-width="0.79365" sodipodi:role="line" id="tspan226-it">GIORNI</tspan></text><text x="115.75674" y="20.994757" stop-color="#000000" text-align="end" style="line-height:1;-inkscape-stroke:none" lang="en" xml:space="preserve" id="text228-pt" systemLanguage="pt"><tspan x="115.75674" y="20.994757" stroke-width="0.79365" sodipodi:role="line" id="tspan226-pt">DIAS</tspan></text><text x="115.75674" y="20.994757" stop-color="#000000" text-align="end" style="line-height:1;-inkscape-stroke:none" lang="en" xml:space="preserve" id="text228"><tspan x="115.75674" y="20.994757" stroke-width="0.79365" sodipodi:role="line" id="tspan226">DAYS</tspan></text></switch><switch transform="matrix(4.7628,0,0,4.7628,41.043,24)" stroke-width="0.20996" style="line-height:1;font-variation-settings:normal;-inkscape-stroke:none" id="switch236"><text x="116.17906" y="74.916565" fill="#8b8d90" font-family="sans-serif" font-size="10.667px" stop-color="#000000" stroke-width="0.20996" text-align="end" text-anchor="end" style="line-height:1;font-variation-settings:normal;-inkscape-stroke:none" lang="en" xml:space="preserve" id="text234"><tspan x="116.17906" y="74.916565" stroke-width="0.20996" sodipodi:role="line" id="tspan232">36.7°</tspan></text></switch></g><g inkscape:groupmode="layer" inkscape:label="Uterine cycle" id="g368" style="display:inline"><g transform="matrix(4.7628,0,0,4.7628,0,24)" stroke-width="0.20996" inkscape:label="uterus5" id="g244" style="display:inline"><path d="m 395.95,322.34976 c -1.729,0.533 -3.618,0.887 -5.737,0.887 -2.464,0 -4.639,-0.467 -6.622,-1.135 -2.411,-0.673 -1.036,-2.758 -0.211,-2.758 2.297,0.174 4.793,0.241 7.536,0.241 1.738,0 3.275,-0.033 4.677,-0.104 1.544,0 1.924,2.451 0.357,2.869 z m -10.393,3.556 c 1.586,1.776 2.619,4.412 3.027,7.446 0.945,7.026 0.293,10.569 0.061,18.667 -0.104,3.603 0.931,15.876 -0.824,18.215 1.756,-2.339 1.057,-14.937 0.258,-18.449 -1.314,-5.773 -4.752,-9.271 -5.697,-16.298 -0.64,-4.75 -1.23972,-6.36745 -2.13672,-8.47645 -0.539,-1.266 2.83572,-3.57855 5.31172,-1.10455 z m 9.148,0.073 c -1.586,1.777 -2.713,4.341 -3.121,7.375 -0.945,7.026 -0.271,10.569 -0.039,18.667 0.104,3.603 -0.93,15.876 0.824,18.215 -1.756,-2.339 -1.057,-14.937 -0.258,-18.449 1.314,-5.773 4.753,-9.271 5.697,-16.298 0.641,-4.75 0.323,-6.579 1.22,-8.688 0.537,-1.268 -1.847,-3.297 -4.323,-0.822 z" fill="#f391bc" stop-color="#000000" style="font-variation-settings:normal;-inkscape-stroke:none" id="path240" sodipodi:nodetypes="csccscccccccccccccccccc"/><use x="0" y="0" xlink:href="#path13073" id="use15236" inkscape:label="ddd5" transform="matrix(0.20996053,0,0,0.20996053,168.86915,-5.0390527)" style="display:inline"/></g><g transform="matrix(4.7628,0,0,4.7628,0,24)" stroke-width="0.20996" inkscape:label="uterus4" id="g250" style="display:inline"><path d="m 316.60811,317.59973 c 4.531,1.461 9.169,4.45 16.081,4.45 6.912,0 11.365,-3.076 15.896,-4.538 h -0.002 c -4.531,1.462 -8.279,1.979 -15.191,1.979 -6.911,0 -12.253,-0.43 -16.784,-1.891 z m -1.019,2.595 c 8.33,3.069 13.576,4.966 14.6,12.564 0.945,7.025 0.732,11.734 1.5,18.667 0.396,3.581 0.855,16.156 -0.898,18.495 1.754,-2.339 0.799,-14.718 -0.002,-18.23 -1.313,-5.773 -4.752,-9.271 -5.697,-16.297 -1.025,-7.598 -1.173,-12.13 -9.503,-15.199 z m 19.256,49.946 c -1.754,-2.339 -0.721,-14.613 -0.824,-18.215 -0.232,-8.099 -0.445,-11.642 0.5,-18.667 1.023,-7.6 5.766,-10.142 14.096,-13.21 h -0.001 c -8.329,3.068 -7.307,7.745 -8.329,15.345 -0.945,7.025 -4.384,10.522 -5.697,16.297 -0.799,3.514 -1.501,16.111 0.255,18.45 z" fill="#f391bc" stop-color="#000000" style="font-variation-settings:normal;-inkscape-stroke:none" id="path246"/><use x="0" y="0" xlink:href="#path13073" id="use14702" inkscape:label="ddd4" style="display:inline" transform="matrix(0.20996053,0,0,0.20996053,111.99315,-5.0390527)"/></g><g transform="matrix(4.7628,0,0,4.7628,0,24)" stroke-width="0.20996" inkscape:label="uterus3" id="g256"><path id="path252" d="m 293.06512,317.19705 c -4.53,1.462 -8.67025,2.7951 -15.58424,2.7951 -6.91299,0 -11.86192,-1.24635 -16.39291,-2.70735 4.53099,1.461 8.44588,5.17233 15.35787,5.17233 6.91199,0 12.08928,-3.79808 16.61928,-5.26008 z m 0.0328,2.53675 c -8.33199,3.06999 -10.09383,5.91024 -11.11683,13.50923 0.55153,3.64576 -1.7945,14.19615 -1.98221,18.2652 1.43455,-5.53372 5.05973,-9.57109 5.98212,-16.42804 1.023,-7.59999 -1.21307,-12.2774 7.11692,-15.34639 z m -33.02777,0.14639 c 8.32999,3.069 8.81102,8.58622 9.83402,16.18422 0.92425,6.85629 3.8323,9.42177 5.2614,14.90307 h 0.007 c -1.28757,-5.61254 -2.68675,-10.78189 -3.60828,-17.64161 -1.024,-7.59799 -3.16371,-10.37668 -11.4937,-13.44568 z m 18.17512,40.8771 c -0.068,3.73879 0.15208,7.39653 0.9235,8.82081 -0.77063,-1.42433 -0.99086,-5.08196 -0.92309,-8.82081 z" sodipodi:nodetypes="cscsccccccccccccccccc" style="fill:#f391bc;fill-opacity:1"/><use x="0" y="0" xlink:href="#path13073" id="use14433" inkscape:label="ddd3" transform="matrix(0.20996053,0,0,0.20996053,56.679684,-5.0390527)" style="display:inline"/></g><path id="path13073" style="display:inline;fill:none;stroke:#000000;stroke-width:4;stroke-linecap:round;stroke-linejoin:round;stroke-dasharray:none;stroke-opacity:1;stop-color:#000000" d="m 1017.362,1818.5604 c 22.5492,-10.0515 45.4418,-13.2221 69.1522,0 m -149.8741,-301.4917 -4.5941,-1.8521 m 14.4201,5.419 -4.0439,-1.6216 m 12.2727,5.8079 -3.523,-1.5851 m -14.7378,12.6705 -4.0711,-1.4577 m 13.0884,7.003 -4.3351,-2.6099 m 9.5335,5.3662 c 5.5535,1.3035 16.0139,9.2578 19.5709,16.2707 2.8391,5.8559 3.3151,8.5352 4.0647,22.8772 1.8067,34.5705 3.9447,47.2206 9.991,59.1169 7.7576,13.7384 19.5241,24.936 25.8863,39.2999 6.5385,15.0225 7.299,26.6736 4.1831,64.0836 2.6797,18.2014 -10.1556,52.8841 -7.3841,68.3519 l 11.6417,5.2762 m 0,0 c 0.089,-13.6684 0.3011,-25.5933 2.6506,-28.5698 2.9345,-3.7179 6.4047,-4.0652 12.3559,-1.2363 4.5014,2.1396 5.3225,2.0816 7.971,-0.5634 2.4589,-2.4557 3.8366,-5.6999 4.8859,-11.5052 1.2414,-6.8688 1.2399,-39.3664 -0.01,-52.2518 -2.4036,-24.9278 -4.3455,-32.6415 -13.0933,-52.0098 -13.173,-29.1662 -15.3861,-36.2505 -18.5151,-59.2672 -2.8427,-20.911 -4.9777,-30.2022 -8.6452,-37.6232 -5.8887,-11.9155 -16.445,-20.4432 -33.3785,-26.9644 m 196.3622,-32.4255 4.5941,-1.8521 m -14.4201,5.419 4.0439,-1.6216 m -12.2727,5.8079 3.523,-1.5851 m 14.7379,12.6705 4.071,-1.4577 m -13.0884,7.003 4.3352,-2.6099 m -9.5336,5.3662 c -5.5535,1.3035 -16.0139,9.2578 -19.5708,16.2707 -2.8391,5.8559 -3.3152,8.5352 -4.0647,22.8772 -1.8068,34.5705 -3.9447,47.2206 -9.9911,59.1169 -7.7575,13.7384 -19.524,24.936 -25.8863,39.2999 -6.5384,15.0225 -7.2989,26.6736 -4.183,64.0836 -2.6798,18.2014 10.1555,52.8841 7.3841,68.3519 l -11.6418,5.2762 c -0.089,-13.6684 -0.3011,-25.5933 -2.6505,-28.5698 -2.9345,-3.7179 -6.4048,-4.0652 -12.3559,-1.2363 -4.5015,2.1396 -5.3226,2.0816 -7.971,-0.5634 -2.4589,-2.4557 -3.8366,-5.6999 -4.8859,-11.5052 -1.2415,-6.8688 -1.2399,-39.3664 0,-52.2518 2.4035,-24.9278 4.3454,-32.6415 13.0932,-52.0098 13.1731,-29.1662 13.9309,-36.1523 17.0599,-59.169 0.7967,-36.625 12.227,-55.4751 36.992,-65.3345 M 976.168,1536.7519 c 46.2331,15.4169 95.6291,19.0978 151.164,0 m -166.2046,-8.336 c 33.1511,0.9606 50.5086,-26.4909 91.2081,-26.4157 40.6994,-0.075 58.057,27.3763 91.208,26.4157" inkscape:label="uterus2"/><g transform="matrix(4.7628,0,0,4.7628,0,24)" inkscape:label="uterus1" id="g266" style="display:inline"><path d="m 160.91275,370.09622 c 1.755,-2.339 0.48325,-15.67422 -0.31575,-19.18622 -1.314,-5.773 -4.752,-9.271 -5.697,-16.297 -0.23,-1.709 -0.695,-1.587 -0.4,-2.652 1.104,-3.99 4.023,-0.764 4.75,0.834 0.905,1.988 4.735,2.516 6,0.041 1.832,-3.582 5.104,-3.356 5.25,-1.25 0.08,1.154 0.08,1.172 -0.17,3.027 -0.945,7.025 -3.42862,9.7383 -4.74262,15.5133 -0.799,3.514 -2.45238,16.8947 -0.69738,19.2337 1.485,2.476 1.278,6.226 -2.056,6.226 -2.584,0 -3.33025,-2.46478 -1.92125,-5.48978 z" fill="#f391bc" stroke-width="0.044084" id="path1616" style="display:inline" sodipodi:nodetypes="ccccccscccsc"/><use x="0" y="0" xlink:href="#path13073" id="use14165" inkscape:label="uterus1" transform="matrix(0.20996053,0,0,0.20996053,-57.958764,-5.0390527)" style="display:inline"/></g><polygon transform="matrix(4.7628,0,0,4.7628,0,24)" points="278.92,407.5 278.42,407.5 278.42,393.18 278.92,393.18 " stroke-width="0.20996" id="polygon268"/><polygon transform="matrix(4.7628,0,0,4.7628,0,24)" points="417.33,387.26 135.33,387.26 135.33,386.76 417.33,386.76 " stroke-width="0.20996" id="polygon270"/><path d="m 1715.9,1831.2 v -1.7385 h 1.9337 v 1.7385 z m 0,-13.326 v -11.593 h 1.9337 v 11.593 z m 0,-23.18 v -11.597 h 1.9337 v 11.597 z m 0,-23.18 v -11.597 h 1.9337 v 11.597 z m 0,-23.176 v -11.593 h 1.9337 v 11.593 z m 0,-23.18 v -11.583 h 1.9337 v 11.583 z m 0,-23.176 v -11.593 h 1.9337 v 11.593 z m 0,-23.185 v -11.602 h 1.9337 v 11.602 z m 0,-23.176 v -11.597 h 1.9337 v 11.597 z m 0,-23.185 v -11.593 h 1.9337 v 11.593 z m 0,-23.18 v -11.583 h 1.9337 v 11.583 z m 0,-23.176 v -11.593 h 1.9337 v 11.593 z m 0,-23.185 v -11.588 h 1.9337 v 11.588 z m 0,-23.176 v -11.597 h 1.9337 v 11.597 z m 0,-23.18 v -11.588 h 1.9337 v 11.588 z m 0,-23.176 v -11.593 h 1.9337 v 11.593 z m -265.13,337.84 v -1.7385 h 1.9242 v 1.7385 z m 0,-13.326 v -11.593 h 1.9242 v 11.593 z m 0,-23.18 V 1783.1 h 1.9242 v 11.597 z m 0,-23.18 v -11.597 h 1.9242 v 11.597 z m 0,-23.176 v -11.593 h 1.9242 v 11.593 z m 0,-23.18 v -11.583 h 1.9242 v 11.583 z m 0,-23.176 v -11.593 h 1.9242 v 11.593 z m 0,-23.185 v -11.602 h 1.9242 v 11.602 z m 0,-23.176 v -11.597 h 1.9242 v 11.597 z m 0,-23.185 v -11.593 h 1.9242 v 11.593 z m 0,-23.18 v -11.583 h 1.9242 v 11.583 z m 0,-23.176 v -11.593 h 1.9242 v 11.593 z m 0,-23.185 v -11.588 h 1.9242 v 11.588 z m 0,-23.176 v -11.597 h 1.9242 v 11.597 z m 0,-23.18 v -11.588 h 1.9242 v 11.588 z m 0,-23.176 v -11.593 h 1.9242 v 11.593 z m -265.14,337.84 v -1.7385 h 1.9432 v 1.7385 z m 0,-13.326 v -11.593 h 1.9432 v 11.593 z m 0,-23.18 v -11.597 h 1.9432 v 11.597 z m 0,-23.18 v -11.597 h 1.9432 v 11.597 z m 0,-23.176 v -11.593 h 1.9432 v 11.593 z m 0,-23.18 v -11.583 h 1.9432 v 11.583 z m 0,-23.176 v -11.593 h 1.9432 v 11.593 z m 0,-23.185 v -11.602 h 1.9432 v 11.602 z m 0,-23.176 v -11.597 h 1.9432 v 11.597 z m 0,-23.185 v -11.593 h 1.9432 v 11.593 z m 0,-23.18 v -11.583 h 1.9432 v 11.583 z m 0,-23.176 v -11.593 h 1.9432 v 11.593 z m 0,-23.185 v -11.588 h 1.9432 v 11.588 z m 0,-23.176 v -11.597 h 1.9432 v 11.597 z m 0,-23.18 v -11.588 h 1.9432 v 11.588 z m 0,-23.176 v -11.593 h 1.9432 v 11.593 z m -274.64,337.84 v -1.7385 h 1.9289 v 1.7385 z m 0,-13.326 v -11.593 h 1.9289 v 11.593 z m 0,-23.18 v -11.597 h 1.9289 v 11.597 z m 0,-23.18 v -11.597 h 1.9289 v 11.597 z m 0,-23.176 v -11.593 h 1.9289 v 11.593 z m 0,-23.18 v -11.583 h 1.9289 v 11.583 z m 0,-23.176 v -11.593 h 1.9289 v 11.593 z m 0,-23.185 v -11.602 h 1.9289 v 11.602 z m 0,-23.176 v -11.597 h 1.9289 v 11.597 z m 0,-23.185 v -11.593 h 1.9289 v 11.593 z m 0,-23.18 v -11.583 h 1.9289 v 11.583 z m 0,-23.176 v -11.593 h 1.9289 v 11.593 z m 0,-23.185 v -11.588 h 1.9289 v 11.588 z m 0,-23.176 v -11.597 h 1.9289 v 11.597 z m 0,-23.18 v -11.588 h 1.9289 v 11.588 z m 0,-23.176 v -11.593 h 1.9289 v 11.593 z m 1083.7,333.08 v -11.597 h 1.9337 v 11.597 z m 0,-23.18 v -11.597 h 1.9337 v 11.597 z m 0,-23.18 v -11.588 h 1.9337 v 11.588 z m 0,-23.176 v -11.593 h 1.9337 v 11.593 z m 0,-23.18 v -11.593 h 1.9337 v 11.593 z m 0,-23.185 v -11.597 h 1.9337 v 11.597 z m 0,-23.18 v -11.597 h 1.9337 v 11.597 z m 0,-23.18 v -11.588 h 1.9337 v 11.588 z m 0,-23.176 v -11.593 h 1.9337 v 11.593 z m 0,-23.18 v -11.593 h 1.9337 v 11.593 z m 0,-23.185 v -11.597 h 1.9337 v 11.597 z m 0,-23.171 v -11.597 h 1.9337 v 11.597 z m 0,-23.19 v -11.593 h 1.9337 v 11.593 z m 0,-23.176 v -11.583 h 1.9337 v 11.583 z m 0,-23.171 v -11.593 h 1.9337 v 11.593 z m 0,-23.185 v -1.7289 h 1.9337 v 1.7289 z m -1359,347.69 v -11.597 h 1.9384 v 11.597 z m 0,-23.18 v -11.597 h 1.9384 v 11.597 z m 0,-23.18 v -11.593 h 1.9384 v 11.593 z m 0,-23.171 v -11.593 h 1.9384 v 11.593 z m 0,-23.18 v -11.593 h 1.9384 v 11.593 z m 0,-23.185 v -11.597 h 1.9384 v 11.597 z m 0,-23.18 v -11.597 h 1.9384 v 11.597 z m 0,-23.18 v -11.597 h 1.9384 v 11.597 z m 0,-23.171 v -11.593 h 1.9384 v 11.593 z m 0,-23.18 v -11.593 h 1.9384 v 11.593 z m 0,-23.185 v -11.602 h 1.9384 v 11.602 z m 0,-23.185 v -11.597 h 1.9384 v 11.597 z m 0,-23.18 v -11.578 h 1.9384 v 11.578 z m 0,-23.166 v -11.593 h 1.9384 v 11.593 z m 0,-23.185 v -11.593 h 1.9384 v 11.593 z m 0,-23.18 v -1.7194 h 1.9384 v 1.7194 z" id="path272"/><g transform="matrix(4.7628,0,0,4.7628,0,24)" stroke-width="0.20996" inkscape:label="secretory" id="g298"><switch fill="#000000" font-family="sans-serif" font-size="10.667px" stroke-linecap="round" stroke-linejoin="round" stroke-width="0.79365" style="-inkscape-stroke:none" id="switch316"><text x="314.27124" y="402.88086" stop-color="#000000" style="-inkscape-stroke:none" lang="en" systemLanguage="fr" xml:space="preserve" id="text302"><tspan x="314.27124" y="402.88086" stroke-width="0.79365" sodipodi:role="line" id="tspan300">SÉCRÉTRICE</tspan></text><text x="296.92371" y="402.88086" stop-color="#000000" style="-inkscape-stroke:none" lang="en" systemLanguage="ru" xml:space="preserve" id="text306" inkscape:label="text314-ru"><tspan x="296.92371" y="402.88086" stroke-width="0.79365" sodipodi:role="line" id="tspan304">Секреторная фаза</tspan></text><text x="314.27124" y="402.88086" stop-color="#000000" style="-inkscape-stroke:none" lang="en" systemLanguage="he" xml:space="preserve" id="text310"><tspan x="314.27124" y="402.88086" stroke-width="0.79365" sodipodi:role="line" id="tspan308">השלב הסקרטורי</tspan></text><text x="314.27124" y="402.88086" stop-color="#000000" style="-inkscape-stroke:none" lang="en" xml:space="preserve" id="text314-it" systemLanguage="it"><tspan x="314.27124" y="402.88086" stroke-width="0.79365" sodipodi:role="line" id="tspan312-it">SECRETORIA</tspan></text><text x="314.27124" y="402.88086" stop-color="#000000" style="-inkscape-stroke:none" lang="en" xml:space="preserve" id="text314-pt" systemLanguage="pt"><tspan x="314.27124" y="402.88086" stroke-width="0.79365" sodipodi:role="line" id="tspan312-pt">FASE FOLICULAR</tspan></text><text x="314.27124" y="402.88086" stop-color="#000000" style="-inkscape-stroke:none" lang="en" xml:space="preserve" id="text314"><tspan x="314.27124" y="402.88086" stroke-width="0.79365" sodipodi:role="line" id="tspan312">SECRETORY</tspan></text></switch><rect x="278.48001" y="390.23001" width="141" height="15.361" fill="none" stop-color="#000000" style="-inkscape-stroke:none" id="rect274"/><polygon points="276.08,304 276.08,289.75 276.58,289.75 276.58,304 " stroke-width="0.20996" id="polygon294"/><polygon points="419.08,407.68 419.08,392.18 419.58,392.18 419.58,407.68 " stroke-width="0.20996" id="polygon296"/></g><g transform="matrix(4.7628,0,0,4.7628,0,24)" stroke-width="0.20996" inkscape:label="menses" id="g322"><switch fill="#000000" font-family="sans-serif" font-size="10.667px" stroke-linecap="round" stroke-linejoin="round" stroke-width="0.79365" style="-inkscape-stroke:none" id="switch292"><text x="138.87912" y="402.88086" stop-color="#000000" style="-inkscape-stroke:none" lang="en" systemLanguage="fr" xml:space="preserve" id="text278"><tspan x="138.87912" y="402.88086" stroke-width="0.79365" sodipodi:role="line" id="tspan276">MENST.</tspan></text><text x="138.87912" y="402.88086" stop-color="#000000" style="-inkscape-stroke:none" lang="en" systemLanguage="ru" xml:space="preserve" id="text282" inkscape:label="text290-ru"><tspan x="138.87912" y="402.88086" stroke-width="0.79365" sodipodi:role="line" id="tspan280">Менстру-</tspan><tspan x="138.87912" y="416.2146" stroke-width="0.79365" sodipodi:role="line" id="tspan1025">ация</tspan></text><text x="138.87912" y="402.88086" stop-color="#000000" style="-inkscape-stroke:none" lang="en" systemLanguage="he" xml:space="preserve" id="text286"><tspan x="138.87912" y="402.88086" stroke-width="0.79365" sodipodi:role="line" id="tspan284">שלב הווסת</tspan></text><text x="166.24915" y="333.74573" stop-color="#000000" style="font-size:8.83652px;stroke-width:0.79365;-inkscape-stroke:none" lang="en" xml:space="preserve" id="text290-it" systemLanguage="it" transform="scale(0.82839809,1.2071491)"><tspan x="166.24915" y="333.74573" stroke-width="0.79365" sodipodi:role="line" id="tspan288-it">MENSTRUALE</tspan></text><text x="166.51625" y="327.37399" stop-color="#000000" style="font-size:8.66782px;stroke-width:0.793647;-inkscape-stroke:none" lang="en" xml:space="preserve" id="text290-pt" systemLanguage="pt" transform="scale(0.81258268,1.230644)"><tspan x="166.51625" y="327.37399" stroke-width="0.793647" sodipodi:role="line" id="tspan288-pt">MENSTRUAÇÃO</tspan></text><text x="138.87912" y="402.88086" stop-color="#000000" style="-inkscape-stroke:none" lang="en" xml:space="preserve" id="text290"><tspan x="138.87912" y="402.88086" stroke-width="0.79365" sodipodi:role="line" id="tspan288">MENSES</tspan></text></switch><rect x="134.08" y="390.23001" width="57.221001" height="17.584999" fill="none" stop-color="#000000" style="-inkscape-stroke:none" id="rect318"/><polygon points="134.08,407.68 134.08,392.18 134.58,392.18 134.58,407.68 " stroke-width="0.20996" id="polygon320"/></g><g transform="matrix(4.7628,0,0,4.7628,168,24)" stroke-width="0.20996" inkscape:label="proliferative" id="g348" style="display:inline"><switch fill="#000000" font-family="sans-serif" font-size="10.667px" stroke-linecap="round" stroke-linejoin="round" stroke-width="0.79365" style="-inkscape-stroke:none" id="switch344"><text x="234.52481" y="402.88086" fill="#000000" stop-color="#000000" stroke-width="0.79365" lang="ru" systemLanguage="ru" xml:space="preserve" id="text330" style="text-align:center;text-anchor:middle"><tspan x="234.52481" y="402.88086" sodipodi:role="line" id="tspan326">Пролифе-</tspan><tspan x="234.52481" y="416.2146" sodipodi:role="line" id="tspan328">ративная фаза</tspan></text><text x="193.53134" y="402.88086" stop-color="#000000" style="white-space:pre;inline-size:84.1301;display:inline;-inkscape-stroke:none" lang="he" xml:space="preserve" id="text338" systemLanguage="he" inkscape:label="text342-he" transform="translate(2.5597343)"><tspan x="193.53134" y="402.88086" id="tspan2"><tspan style="font-size:5.59895px" id="tspan1">השלב </tspan>הפרוליפרטיבי</tspan></text><text x="193.53134" y="402.88086" stop-color="#000000" style="-inkscape-stroke:none" lang="fr" systemLanguage="fr" xml:space="preserve" id="text334"><tspan x="193.53134" y="402.88086" stroke-width="0.79365" sodipodi:role="line" id="tspan332">PROLIFÉRATIVE</tspan></text><text x="193.53134" y="402.88086" stop-color="#000000" style="-inkscape-stroke:none" lang="en" xml:space="preserve" id="text342-it" systemLanguage="it"><tspan x="193.53134" y="402.88086" stroke-width="0.79365" sodipodi:role="line" id="tspan340-it">PROLIFERATIVA</tspan></text><text x="193.53134" y="402.88086" stop-color="#000000" style="-inkscape-stroke:none" lang="en" xml:space="preserve" id="text342-pt" systemLanguage="pt"><tspan x="193.53134" y="402.88086" stroke-width="0.79365" sodipodi:role="line" id="tspan340-pt">FASE PROLIFERATIVA</tspan></text><text x="193.53134" y="402.88086" stop-color="#000000" style="-inkscape-stroke:none" lang="en" xml:space="preserve" id="text342"><tspan x="193.53134" y="402.88086" stroke-width="0.79365" sodipodi:role="line" id="tspan340">PROLIFERATIVE</tspan></text></switch><rect x="190.77" y="390.23001" width="88.209" height="15.928" fill="none" stop-color="#000000" style="-inkscape-stroke:none" id="rect324"/><polygon points="191.25,392.18 191.25,407.68 190.75,407.68 190.75,392.18 " stroke-width="0.20996" id="polygon346"/></g><switch transform="matrix(4.7628,0,0,4.7628,0,24)" fill="#000000" font-family="sans-serif" font-size="10.667px" stroke-linecap="round" stroke-linejoin="round" stroke-width="0.79365" style="-inkscape-stroke:none" id="switch366" inkscape:label="uterine cycle"><text x="32.785034" y="383.12363" stop-color="#000000" style="-inkscape-stroke:none" inkscape:label="uterine cycle" lang="en" systemLanguage="fr" xml:space="preserve" id="text352"><tspan x="32.785034" y="383.12363" stroke-width="0.79365" sodipodi:role="line" id="tspan350">CYCLE UTÉRIN</tspan></text><text x="32.785034" y="383.12363" stop-color="#000000" style="display:inline;-inkscape-stroke:none" inkscape:label="uterine cycle" lang="en" systemLanguage="ru" xml:space="preserve" id="text356"><tspan x="32.785034" y="383.12363" stroke-width="0.79365" sodipodi:role="line" id="tspan354">Цикл яичников</tspan></text><text x="32.785034" y="383.12363" stop-color="#000000" style="display:inline;-inkscape-stroke:none" inkscape:label="uterine cycle" lang="en" systemLanguage="he" xml:space="preserve" id="text360"><tspan x="32.785034" y="383.12363" stroke-width="0.79365" sodipodi:role="line" id="tspan358">מחזור הרחם</tspan></text><text x="124.4627" y="383.12363" stop-color="#000000" text-align="end" text-anchor="end" style="-inkscape-stroke:none" inkscape:label="uterine cycle" lang="en" xml:space="preserve" id="text364-it" systemLanguage="it"><tspan x="124.4627" y="383.12363" stroke-width="0.79365" sodipodi:role="line" id="tspan362-it">CICLO UTERINO</tspan></text><text x="124.4627" y="383.12363" stop-color="#000000" text-align="end" text-anchor="end" style="-inkscape-stroke:none" inkscape:label="uterine cycle" lang="en" xml:space="preserve" id="text364-pt" systemLanguage="pt"><tspan x="124.4627" y="383.12363" stroke-width="0.79365" sodipodi:role="line" id="tspan362-pt">CICLO UTERINO</tspan></text><text x="124.4627" y="383.12363" stop-color="#000000" text-align="end" text-anchor="end" style="-inkscape-stroke:none" inkscape:label="uterine cycle" lang="en" xml:space="preserve" id="text364"><tspan x="124.4627" y="383.12363" stroke-width="0.79365" sodipodi:role="line" id="tspan362">UTERINE CYCLE</tspan></text></switch></g><g inkscape:groupmode="layer" inkscape:label="Uterus" id="g390" style="display:inline"><path d="m 90.469,1533.3 c 0,-0.5239 0.0095,-1.0478 0.0381,-1.5384 1.4193,-23.061 26.748,-33.12 51.581,-33.097 12.212,0.01 24.581,2.4004 34.711,7.168 l -1.0097,2.1528 -1.0145,2.1527 c -9.3256,-4.396 -21.109,-6.7203 -32.682,-6.7107 -24.047,0.024 -46.109,9.8066 -46.823,28.586 -0.01905,0.4382 -0.0381,0.8812 -0.0381,1.2908 -0.0095,9.1683 5.0057,17.875 13.155,24.362 8.1396,6.4822 19.346,10.631 31.263,10.621 12.459,0.01 26.31,-2.3624 36.793,-6.8442 10.597,-4.5389 17.237,-10.926 17.16,-18.394 -0.30958,-18.084 -1.4384,-24.395 -18.827,-32.916 l 1.0145,-2.1528 1.0097,-2.1528 c 18.746,8.4683 21.852,19.161 21.556,37.221 -0.081,10.583 -8.8588,18.008 -20.047,22.771 -11.297,4.82 -25.605,7.2299 -38.66,7.2442 -25.929,-0.048 -49.014,-17.798 -49.181,-39.764 z" fill="#f49ac1" inkscape:label="right ovary" id="path370"/><path d="m 411.59,1533.3 c 0,-0.5239 0.01,-1.0479 0.0429,-1.5337 1.4098,-23.076 26.748,-33.125 51.576,-33.101 12.212,0 24.576,2.4005 34.711,7.1585 l -1.0145,2.1623 -1.024,2.1528 c -9.3208,-4.4056 -21.099,-6.7203 -32.673,-6.7203 -24.047,0.019 -46.109,9.8066 -46.823,28.586 -0.019,0.4382 -0.0429,0.8811 -0.0286,1.2955 -0.01,9.1683 4.9914,17.875 13.145,24.362 8.1396,6.4822 19.361,10.631 31.263,10.621 12.459,0.01 26.31,-2.3624 36.797,-6.8489 10.592,-4.5199 17.237,-10.907 17.146,-18.394 -0.2953,-18.08 -1.4384,-24.39 -18.827,-32.901 l 1.024,-2.1528 1.0145,-2.1623 c 18.746,8.4683 21.852,19.161 21.552,37.216 -0.081,10.588 -8.854,18.013 -20.042,22.785 -11.302,4.8104 -25.605,7.2203 -38.664,7.2299 -25.919,-0.038 -49.004,-17.789 -49.176,-39.755 z" fill="#f49ac1" inkscape:label="left ovary" id="path372"/><g transform="matrix(4.7628,0,0,4.7628,0,24)" inkscape:label="uterus" id="g380"><path d="m 58.054,351.77 -2.38,-1.091 c 0,0 0,-2.081 0.463,-4.195 0,0 0.462,-1.722 0.925,-8 0.462,-6.278 1.388,-10.51 -2.116,-15.468 -3.503,-4.957 -5.221,-4.495 -5.619,-17.848 -0.132,-4.032 -2.908,-5.222 -3.701,-5.485 -0.794,-0.266 -6.478,-4.693 -10.973,-3.371 -4.495,1.321 -6.61,1.521 -9.32,1.189 -2.71,-0.33 -11.172,-0.793 -10.643,8.195 0.132,2.445 0.859,5.421 3.768,5.687 2.909,0.263 5.42,-0.2 5.42,-0.2 2.115,-0.132 2.611,3.504 0.1,3.372 -2.208,-0.116 -3.569,0.662 -2.71,2.214 0.607,1.099 2.366,2.304 1.057,3.537 -1.751,1.652 -3.174,-2.316 -4.726,-1.651 -1.388,0.595 0.935,3.954 -1.289,4.526 -2.182,0.563 -2.379,-1.354 -2.479,-3.537 -0.139,-3.037 0.595,-4.164 -1.784,-7.997 -2.255,-3.633 -3.834,-15.997 8.658,-18.772 6.213,-1.124 7.799,0.064 14.608,0.396 6.809,0.33 6.545,0.396 11.502,2.907 3.066,1.554 10.444,-4.823 17.451,-4.823 6.279,0 14.515,6.377 17.581,4.823 4.957,-2.512 4.693,-2.577 11.502,-2.907 6.809,-0.332 8.395,-1.521 14.607,-0.396 12.493,2.775 10.914,15.141 8.659,18.772 -2.378,3.833 -1.645,4.96 -1.784,7.997 -0.1,2.184 -0.297,4.101 -2.479,3.537 -2.223,-0.571 0.099,-3.933 -1.289,-4.526 -1.552,-0.665 -2.975,3.305 -4.726,1.651 -1.309,-1.233 0.45,-2.438 1.057,-3.537 0.859,-1.552 -0.501,-2.33 -2.71,-2.214 -2.512,0.132 -2.015,-3.504 0.1,-3.372 0,0 2.512,0.463 5.42,0.2 2.908,-0.266 3.635,-3.24 3.768,-5.687 0.529,-8.988 -7.933,-8.525 -10.643,-8.195 -2.71,0.33 -4.825,0.132 -9.32,-1.189 -4.495,-1.322 -10.179,3.105 -10.973,3.371 -0.794,0.264 -3.569,1.453 -3.702,5.485 -0.397,13.353 -2.115,12.891 -5.618,17.848 -3.503,4.958 -2.578,9.188 -2.116,15.468 0.463,6.278 0.925,8 0.925,8 0.463,2.114 0.463,4.195 0.463,4.195 l -2.082,0.495" fill="#ffffff" stroke-width="0.044084" inkscape:label="background" id="path374"/><path d="m 55.236,350.96 v -0.28 c 0,-0.017 -0.002,-2.117 0.477,-4.311 -0.002,-0.002 0.107,-0.393 0.278,-1.595 0.171,-1.201 0.403,-3.19 0.634,-6.323 0.192,-2.627 0.464,-4.881 0.462,-6.945 -0.004,-2.9 -0.512,-5.417 -2.499,-8.235 -3.449,-4.84 -5.35,-4.748 -5.699,-18.086 -0.134,-3.801 -2.679,-4.824 -3.4,-5.084 -0.521,-0.195 -1.679,-1.051 -3.377,-1.923 -1.667,-0.862 -3.742,-1.679 -5.666,-1.675 -0.573,0 -1.131,0.068 -1.667,0.229 -3.293,0.971 -5.354,1.35 -7.313,1.35 -0.729,0 -1.438,-0.055 -2.185,-0.143 -0.529,-0.064 -1.284,-0.137 -2.144,-0.137 -3.367,0.053 -8.012,0.936 -8.031,7.104 0,0.246 0.006,0.5 0.023,0.769 0.144,2.432 0.838,5.073 3.369,5.272 0.627,0.058 1.238,0.079 1.809,0.079 2.007,0 3.49,-0.272 3.538,-0.278 0.038,-0.004 0.084,-0.009 0.145,-0.009 1.361,0.015 2.116,1.222 2.119,2.295 0,0.479 -0.145,0.97 -0.487,1.351 -0.339,0.381 -0.872,0.613 -1.51,0.611 h -0.155 c -0.142,-0.009 -0.274,-0.016 -0.399,-0.016 -0.715,0 -1.296,0.116 -1.646,0.3 -0.354,0.193 -0.456,0.36 -0.466,0.625 0,0.156 0.054,0.374 0.209,0.651 0.349,0.716 1.526,1.56 1.583,2.794 0.004,0.446 -0.207,0.897 -0.611,1.276 -0.359,0.343 -0.78,0.526 -1.19,0.524 -0.884,-0.027 -1.491,-0.667 -2.07,-1.188 -0.562,-0.553 -1.115,-0.98 -1.403,-0.949 -0.061,0 -0.117,0.01 -0.19,0.044 -0.14,0.063 -0.194,0.148 -0.209,0.548 -0.006,0.526 0.201,1.325 0.205,2.094 0.038,0.747 -0.316,1.667 -1.347,1.906 -0.293,0.075 -0.563,0.111 -0.812,0.111 -0.952,0.022 -1.594,-0.625 -1.84,-1.387 -0.274,-0.767 -0.329,-1.7 -0.375,-2.666 -0.015,-0.326 -0.021,-0.63 -0.021,-0.916 0,-0.628 0.023,-1.172 0.023,-1.68 -0.008,-1.472 -0.167,-2.667 -1.721,-5.19 -0.876,-1.423 -1.61,-3.938 -1.614,-6.765 -0.029,-4.938 2.384,-10.879 10.567,-12.672 1.933,-0.351 3.436,-0.481 4.789,-0.481 3.047,0.004 5.243,0.644 9.917,0.872 6.774,0.311 6.768,0.447 11.68,2.955 0.257,0.129 0.566,0.193 0.947,0.193 3.208,0.064 9.869,-5.037 16.306,-5.066 5.797,0.033 13.033,5.126 16.407,5.066 0.397,0 0.719,-0.066 0.975,-0.193 4.913,-2.508 4.906,-2.646 11.68,-2.955 4.672,-0.227 6.868,-0.868 9.917,-0.872 1.351,0 2.855,0.129 4.806,0.483 8.165,1.793 10.578,7.734 10.549,12.673 -0.004,2.82 -0.736,5.337 -1.613,6.762 -1.556,2.523 -1.715,3.723 -1.723,5.192 0,0.508 0.023,1.05 0.023,1.675 0,0.287 -0.004,0.59 -0.019,0.919 -0.046,0.968 -0.101,1.902 -0.375,2.666 -0.247,0.762 -0.891,1.409 -1.84,1.387 -0.253,0 -0.521,-0.038 -0.812,-0.111 -1.033,-0.235 -1.387,-1.157 -1.349,-1.904 0.004,-0.768 0.211,-1.568 0.205,-2.096 -0.015,-0.401 -0.071,-0.488 -0.209,-0.548 -0.071,-0.031 -0.13,-0.044 -0.19,-0.044 -0.289,-0.032 -0.841,0.396 -1.405,0.949 -0.577,0.521 -1.184,1.158 -2.066,1.186 -0.41,0.003 -0.83,-0.18 -1.192,-0.523 -0.404,-0.375 -0.615,-0.828 -0.611,-1.271 0.057,-1.239 1.236,-2.083 1.585,-2.795 0.153,-0.274 0.205,-0.495 0.205,-0.651 -0.009,-0.265 -0.111,-0.432 -0.464,-0.627 -0.352,-0.184 -0.931,-0.3 -1.646,-0.3 -0.127,0 -0.259,0.005 -0.401,0.016 -0.05,0 -0.101,0.002 -0.151,0.002 -0.64,0.004 -1.173,-0.23 -1.512,-0.611 -0.343,-0.383 -0.487,-0.872 -0.487,-1.351 0.002,-1.075 0.757,-2.282 2.118,-2.297 0.038,0 0.099,0 0.192,0.015 0,-0.002 0.375,0.065 1,0.135 0.621,0.068 1.491,0.137 2.493,0.137 0.569,0 1.18,-0.023 1.809,-0.077 2.531,-0.199 3.225,-2.841 3.369,-5.272 0.015,-0.264 0.021,-0.52 0.021,-0.766 -0.019,-6.172 -4.666,-7.055 -8.031,-7.108 -0.859,0 -1.612,0.071 -2.144,0.138 -0.747,0.09 -1.458,0.142 -2.184,0.142 -1.961,0 -4.021,-0.382 -7.313,-1.349 -0.535,-0.155 -1.094,-0.228 -1.667,-0.228 -1.926,-0.004 -4.001,0.812 -5.666,1.673 -1.698,0.872 -2.859,1.729 -3.377,1.922 -0.722,0.262 -3.267,1.286 -3.401,5.084 -0.349,13.342 -2.25,13.249 -5.699,18.09 -1.989,2.82 -2.497,5.335 -2.501,8.234 -0.002,2.064 0.268,4.318 0.464,6.945 0.232,3.133 0.462,5.122 0.634,6.324 0.171,1.201 0.278,1.592 0.282,1.613 0.475,2.174 0.473,4.273 0.475,4.29 v 0.346 l -2.419,0.576 -0.203,-0.854 1.736,-0.413 c -0.021,-0.666 -0.102,-2.203 -0.439,-3.738 -0.013,-0.046 -0.475,-1.786 -0.939,-8.081 -0.192,-2.604 -0.466,-4.867 -0.469,-7.01 -0.004,-3.001 0.561,-5.776 2.663,-8.742 3.557,-5.075 5.094,-4.243 5.538,-17.608 0.132,-4.264 3.137,-5.619 4.001,-5.887 0.173,-0.041 1.556,-0.994 3.254,-1.873 1.728,-0.889 3.898,-1.767 6.067,-1.771 0.644,0 1.288,0.081 1.916,0.267 3.26,0.957 5.224,1.311 7.064,1.311 0.686,0 1.357,-0.049 2.077,-0.135 0.554,-0.07 1.345,-0.145 2.25,-0.145 1.746,0.003 3.94,0.264 5.747,1.408 1.815,1.143 3.175,3.221 3.162,6.577 0,0.264 -0.008,0.534 -0.025,0.813 -0.119,2.459 -0.88,5.769 -4.168,6.1 -0.657,0.056 -1.29,0.081 -1.884,0.081 -2.087,0 -3.635,-0.284 -3.639,-0.284 0,0 -0.009,-0.002 -0.046,0 -0.753,0 -1.234,0.7 -1.242,1.418 0.038,0.615 0.27,1.059 1.123,1.085 0.038,0 0.075,0 0.103,-0.002 0.155,-0.01 0.305,-0.016 0.45,-0.016 1.554,0.002 2.934,0.474 2.989,1.804 0,0.35 -0.111,0.707 -0.316,1.077 -0.548,0.907 -1.531,1.807 -1.475,2.369 0.004,0.185 0.061,0.367 0.334,0.634 0.251,0.229 0.425,0.281 0.59,0.284 0.35,0.026 0.906,-0.401 1.468,-0.946 0.577,-0.518 1.146,-1.155 2.003,-1.188 0.182,0 0.366,0.04 0.536,0.113 0.598,0.249 0.757,0.87 0.742,1.354 -0.006,0.704 -0.211,1.486 -0.205,2.096 0.038,0.624 0.092,0.872 0.688,1.055 0.232,0.059 0.431,0.086 0.594,0.083 0.577,-0.021 0.778,-0.229 1.017,-0.807 0.211,-0.573 0.282,-1.456 0.322,-2.405 0.015,-0.313 0.017,-0.604 0.017,-0.881 0.002,-0.604 -0.021,-1.143 -0.021,-1.675 -0.009,-1.563 0.238,-3.07 1.853,-5.655 0.761,-1.217 1.487,-3.639 1.483,-6.299 -0.029,-4.693 -2.11,-10.069 -9.846,-11.813 -1.895,-0.346 -3.337,-0.467 -4.632,-0.467 -2.9,-0.004 -5.126,0.636 -9.875,0.87 -6.845,0.35 -6.324,0.345 -11.327,2.86 -0.412,0.207 -0.876,0.291 -1.37,0.291 -3.944,-0.058 -11.011,-5.1 -16.407,-5.067 -6.061,-0.027 -12.479,5.001 -16.306,5.067 -0.479,0 -0.935,-0.084 -1.343,-0.291 -5.002,-2.517 -4.481,-2.512 -11.327,-2.86 -4.751,-0.236 -6.977,-0.874 -9.875,-0.87 -1.294,0 -2.739,0.123 -4.615,0.464 -7.755,1.74 -9.836,7.119 -9.863,11.812 -0.006,2.665 0.721,5.087 1.482,6.302 1.613,2.583 1.859,4.091 1.851,5.653 0,0.534 -0.023,1.072 -0.023,1.68 0,0.274 0.006,0.565 0.021,0.876 0.04,0.951 0.111,1.834 0.322,2.407 0.238,0.574 0.439,0.785 1.017,0.807 0.163,0 0.359,-0.022 0.59,-0.081 0.598,-0.187 0.654,-0.436 0.692,-1.059 0.004,-0.608 -0.201,-1.392 -0.205,-2.094 -0.017,-0.484 0.145,-1.104 0.732,-1.352 0.178,-0.081 0.364,-0.119 0.543,-0.119 0.857,0.033 1.426,0.672 2.003,1.188 0.563,0.545 1.121,0.974 1.47,0.948 0.163,-0.005 0.339,-0.055 0.588,-0.283 0.276,-0.271 0.333,-0.454 0.336,-0.64 0.055,-0.558 -0.928,-1.459 -1.476,-2.369 -0.203,-0.367 -0.316,-0.726 -0.316,-1.076 0.054,-1.33 1.435,-1.8 2.988,-1.802 0.149,0 0.297,0.008 0.431,0.016 0.031,0 0.073,0 0.123,-0.002 0.852,-0.027 1.083,-0.464 1.121,-1.083 -0.01,-0.719 -0.489,-1.416 -1.242,-1.416 -0.01,-0.002 -0.038,0 -0.031,-0.002 -0.017,0.002 -1.564,0.286 -3.651,0.288 -0.594,0 -1.23,-0.024 -1.889,-0.083 -3.284,-0.331 -4.045,-3.641 -4.164,-6.096 -0.019,-0.281 -0.027,-0.554 -0.027,-0.818 -0.013,-3.356 1.347,-5.437 3.162,-6.575 1.809,-1.144 4,-1.403 5.747,-1.408 0.907,0 1.696,0.076 2.248,0.146 0.721,0.084 1.395,0.133 2.081,0.133 1.838,0 3.802,-0.35 7.062,-1.311 0.63,-0.187 1.274,-0.266 1.918,-0.266 2.167,0.004 4.339,0.884 6.067,1.771 1.696,0.881 3.081,1.834 3.252,1.871 0.866,0.269 3.871,1.623 4.001,5.889 0.448,13.364 1.982,12.532 5.54,17.607 2.1,2.964 2.665,5.741 2.66,8.742 -0.002,2.142 -0.276,4.408 -0.466,7.01 -0.464,6.295 -0.927,8.035 -0.933,8.063 -0.352,1.603 -0.431,3.192 -0.449,3.82 l 2.12,0.974 -0.366,0.796 z" stroke-width="0.20996" inkscape:label="fallopian tubes" id="path376"/><path d="m 78.578,297.49 c -4.089,1.315 -8.0461,2.4003 -14.246,2.4043 -6.204,0 -10.332,-1.0122 -14.412,-2.3262 l -0.26758,0.83593 c 4.117,1.33 8.3797,2.3691 14.68,2.3691 H 64.35 c 6.295,0 10.391,-1.1262 14.496,-2.4492 z m 0.01172,2.3047 c -7.769,2.821 -6.9423,7.5074 -7.8203,14.232 -0.826,6.22 -3.9085,9.3372 -5.1465,14.701 -0.408,1.789 -0.76553,5.9139 -0.76953,9.7129 0.025,3.232 0.20817,6.1089 1.0762,7.3379 0.54,0.72 1.0474,1.075 1.6074,1.082 1.027,-0.1 1.476,-0.91612 1.875,-0.82812 0.034,0 0.06928,0.002 0.11328,0.0117 0.807,0.06 0.97572,1.6479 1.0117,2.8359 0.021,0.373 0.0293,0.69384 0.0293,0.96484 0,0.259 -0.0085,0.46872 -0.01953,0.63672 -1.569,-0.746 -3.7572,-1.1786 -6.0332,-1.1816 -2.154,0 -4.3831,0.39251 -6.2051,1.3535 -0.01,-0.164 -0.01563,-0.36533 -0.01563,-0.61132 0,-0.27 0.0083,-0.5909 0.0293,-0.9629 0.036,-0.593 0.0081,-1.3673 0.11914,-1.9883 0.126,-0.644 0.32141,-0.97387 0.69141,-1.0469 0.054,-0.012 0.09077,-0.0176 0.13477,-0.0176 0.429,-0.062 0.97608,0.6245 1.9551,0.6875 0.59,0.002 1.1672,-0.35686 1.7422,-1.1309 0.793,-1.127 0.95947,-3.5403 0.98047,-6.3613 -0.002,-3.966 -0.47125,-8.5662 -0.90625,-10.492 -1.238,-5.364 -4.3225,-8.4812 -5.1465,-14.701 -0.876,-6.799 -1.15,-11.306 -8.877,-14.104 l -0.30273,0.82226 c 7.343,2.753 7.3365,6.4465 8.3105,13.395 0.887,6.491 4.0241,9.6993 5.1621,14.779 0.409,1.796 0.88286,6.4128 0.88086,10.299 0.021,2.737 -0.28569,5.201 -0.80469,5.834 -0.517,0.679 -0.83006,0.77925 -1.0391,0.78125 -0.4,0.063 -0.96213,-0.6265 -1.9531,-0.6875 -0.106,0 -0.21894,0.01 -0.33594,0.041 -0.885,0.189 -1.2346,1.0171 -1.3516,1.7461 -0.132,0.749 -0.09881,1.5638 -0.13281,2.0898 -0.023,0.39 -0.03125,0.72662 -0.03125,1.0156 0,0.962 0.10038,1.3897 0.10938,1.4297 l 0.14648,0.59375 0.51367,-0.32617 c 1.711,-1.083 4.0532,-1.5606 6.3262,-1.5586 2.44,-0.004 4.8069,0.54919 6.1699,1.3672 l 0.50781,0.29883 0.14062,-0.57031 c 0.011,-0.039 0.11133,-0.46574 0.11133,-1.4277 0,-0.293 -0.0102,-0.63058 -0.0332,-1.0176 -0.103,-1.057 0.04387,-3.1636 -1.7031,-3.6426 -0.094,-0.019 -0.19388,-0.0332 -0.29688,-0.0332 -1.06,0.086 -1.565,0.92913 -1.873,0.82813 -0.134,0.005 -0.4213,-0.0885 -0.9043,-0.72852 -0.585,-0.71 -0.92534,-3.6735 -0.90234,-6.8125 -0.002,-3.73 0.36705,-7.8716 0.74805,-9.5176 1.138,-5.082 4.2732,-8.2902 5.1602,-14.781 0.975,-7.021 -0.04709,-10.796 7.2539,-13.527 z" stroke-width="0.20996" inkscape:label="uterus" id="path378"/></g><path d="m 377.29,1715.5 v -1.9242 h 11.588 v 1.9242 z m -23.176,0 v -1.9242 h 11.588 v 1.9242 z m -23.185,0 v -1.9242 h 11.588 v 1.9242 z m -23.176,0 v -1.9242 h 11.588 v 1.9242 z m -23.181,0 v -1.9242 h 11.588 v 1.9242 z m -23.185,0 v -1.9242 h 11.588 v 1.9242 z m -23.176,0 v -1.9242 h 11.588 v 1.9242 z m -20.309,0 v -4.8152 h 1.9337 v 2.8815 h 6.787 v 1.9242 z m 170.01,-11.202 v -11.597 h 1.9337 v 11.597 z m -170.01,-5.2009 v -11.597 h 1.9337 v 11.597 z m 170.01,-17.984 v -11.588 h 1.9337 v 11.588 z m -170.01,-5.1915 v -11.593 h 1.9337 v 11.593 z m 170.01,-17.984 v -11.588 h 1.9337 v 11.588 z m -170.01,-5.1914 v -11.593 h 1.9337 v 11.593 z m 170.01,-17.989 v -11.607 h 1.9337 v 11.607 z m -170.01,-5.1962 v -11.593 h 1.9337 v 11.593 z m 170.01,-17.989 v -11.597 h 1.9337 v 11.597 z m -170.01,-5.1915 v -11.597 h 1.9337 v 11.597 z m 170.01,-17.984 v -11.593 h 1.9337 v 11.593 z m -170.01,-5.1914 v -11.597 h 1.9337 v 11.597 z m 170.01,-17.984 v -11.593 h 1.9337 v 11.593 z m -170.01,-5.201 v -11.593 h 1.9337 v 11.593 z m 170.01,-17.975 v -11.593 h 1.9337 v 11.593 z m -170.01,-5.2009 v -11.593 h 1.9337 v 11.593 z m 170.01,-17.989 v -11.593 h 1.9337 v 11.593 z m -170.01,-5.1867 v -11.593 h 1.9337 v 11.593 z m 170.01,-17.989 v -11.597 h 1.9337 v 11.597 z m -170.01,-5.201 v -11.588 h 1.9337 v 11.588 z m 170.01,-17.975 v -11.597 h 1.9337 v 11.597 z m -170.01,-5.2057 v -11.593 h 1.9337 v 11.593 z m 170.01,-17.98 v -11.593 h 1.9337 v 11.593 z m -170.01,-5.1961 v -11.588 h 1.9337 v 11.588 z m 170.01,-17.975 v -11.597 h 1.9337 v 11.597 z m -170.01,-5.201 v -11.593 h 1.9337 v 11.593 z m 170.01,-17.984 v -3.5625 h -6.1107 v -1.9194 h 8.0396 v 5.4819 z m -6.1107,-3.5625 v 0.01 z m -23.176,0 v -1.9194 h 11.588 v 1.9194 z m -23.176,0 v -1.9194 h 11.588 v 1.9194 z m -23.19,0 v -1.9194 h 11.588 v 1.9194 z m -23.176,0 v -1.9194 h 11.588 v 1.9194 z m -23.176,0 v -1.9194 h 11.588 v 1.9194 z m -23.185,0 v -1.9194 h 11.597 v 1.9194 z m -23.176,0 v -1.9194 h 11.588 v 1.9194 z" inkscape:label="uterus box" id="path382"/><path d="m 526.31,1595.8 v -1.967 h 11.802 v 1.967 z m -23.6,0 v -1.967 h 11.802 v 1.967 z m -23.614,0 v -1.967 h 11.802 v 1.967 z m -23.604,0 v -1.967 h 11.802 v 1.967 z m -23.604,0 v -1.967 h 11.802 v 1.967 z m -23.604,0 v -1.967 h 11.802 v 1.967 z m 128.85,-6.9346 v -11.807 h 1.967 v 11.807 z m -130.34,-5.3534 v -11.807 h 1.967 v 11.807 z m 130.34,-18.26 v -11.807 h 1.967 v 11.807 z m -130.34,-5.3439 v -11.807 h 1.967 v 11.807 z m 130.34,-18.256 v -11.807 h 1.967 v 11.807 z m -130.34,-5.3487 v -11.807 h 1.967 v 11.807 z m 130.34,-18.256 v -11.807 h 1.967 v 11.807 z m -130.34,-5.3439 v -11.807 h 1.967 v 11.807 z m 130.34,-18.27 v -11.798 h 1.967 v 11.798 z m -130.34,-5.3439 v -9.8542 h 3.9055 v 1.967 h -1.9384 v 7.8872 z m 110.13,-7.8872 v -1.967 h 11.812 v 1.967 z m -23.6,0 v -1.967 h 11.802 v 1.967 z m -23.604,0 v -1.967 h 11.802 v 1.967 z m -23.604,0 v -1.967 h 11.802 v 1.967 z m -23.614,0 v -1.967 h 11.812 v 1.967 z" inkscape:label="ovary box" id="path384"/><path d="m 608.87,1774.2 0.89064,-1.7099 3.4911,1.7956 -0.89064,1.7146 z m -20.604,-10.621 0.89064,-1.7146 10.302,5.3106 -0.89065,1.7098 z m -20.609,-10.611 0.89064,-1.7147 10.297,5.3058 -0.88588,1.7146 z m -20.609,-10.612 0.89064,-1.7147 10.297,5.3058 -0.89064,1.7146 z m -20.604,-10.616 0.89065,-1.7098 10.297,5.3009 -0.89064,1.7146 z m -20.609,-10.612 0.89064,-1.7146 10.302,5.3105 -0.88112,1.7003 z m -20.609,-10.616 0.89065,-1.7098 10.302,5.3057 -0.88111,1.7146 z m -20.609,-10.607 0.89064,-1.7194 10.297,5.301 -0.87635,1.7146 z m -20.604,-10.616 0.89064,-1.7098 10.307,5.3057 -0.88588,1.7099 z m -20.609,-10.621 0.88588,-1.7146 10.311,5.3058 -0.89064,1.7146 z m -20.609,-10.607 0.89064,-1.7099 10.311,5.3058 -0.89064,1.7098 z" inkscape:label="line" id="path386"/><path d="m 475.61,1469.6 8.4587,-7.9348 1.3145,1.405 -8.4444,7.9443 z m 16.903,-15.87 8.4587,-7.9252 1.3145,1.4144 -8.4444,7.9253 z m 16.903,-15.85 8.4444,-7.9348 1.3288,1.4098 -8.4492,7.9348 z m 16.908,-15.879 8.4444,-7.9158 1.3241,1.4098 -8.454,7.93 z m 16.903,-15.846 8.4492,-7.9348 1.3241,1.4097 -8.454,7.9301 z m 16.894,-15.865 8.454,-7.93 1.3193,1.4145 -8.4444,7.9301 z m 16.903,-15.865 8.454,-7.93 1.3193,1.4146 -8.4492,7.9348 z m 16.908,-15.855 8.4444,-7.93 1.324,1.405 -8.4444,7.9348 z m 16.898,-15.86 8.4492,-7.9348 1.3241,1.4241 -8.454,7.9157 z m 16.908,-15.865 8.4444,-7.9348 1.3288,1.4097 -8.454,7.9301 z m 16.894,-15.865 8.454,-7.9157 1.3193,1.405 -8.4492,7.9253 z" inkscape:label="line" id="path388"/></g><g inkscape:groupmode="layer" inkscape:label="Ovarian cycle" id="g522" style="display:inline"><g transform="matrix(4.7628,0,0,4.7628,0,24)" stroke-width="0.044084" inkscape:label="egg7" id="g396"><circle cx="401.70001" cy="252.45" r="7.9590001" fill="#c091c1" id="circle392"/><circle cx="402.32999" cy="252.49001" r="1.8329999" fill="#ccc9e5" id="circle394"/></g><g transform="matrix(4.7628,0,0,4.7628,0,24)" stroke-width="0.044084" inkscape:label="egg6" id="g402"><circle cx="368.95999" cy="252.95" r="12.709" fill="#c091c1" id="circle398"/><circle cx="369.75" cy="253.49001" r="3.4579999" fill="#ccc9e5" id="circle400"/></g><g transform="matrix(4.7628,0,0,4.7628,0,24)" stroke-width="0.044084" inkscape:label="egg5" id="g408"><circle cx="326" cy="253.82001" r="14.834" fill="#c091c1" id="circle404"/><circle cx="327.25" cy="253.50999" r="5.6209998" fill="#ccc9e5" id="circle406"/></g><g transform="matrix(4.7628,0,0,4.7628,0,24)" stroke-width="0.044084" inkscape:label="egg4b" id="g416"><path d="m 281.83,240.66 c -1.666,-0.416 -3.084,1.667 -5.5,1.667 -2.416,0 -3.416,-1.333 -4.666,-1.583 -1.25,-0.25 -1.584,3 -1.584,3 l 13.667,0.666 -2,-3.416" fill="#ccc9e5" id="path410"/><path d="m 281.87,242.24 c 4.023,1.986 6.793,6.13 6.793,10.92 0,6.719 -5.446,12.167 -12.167,12.167 -6.722,0 -12.166,-5.448 -12.166,-12.167 0,-4.736 2.706,-8.842 6.658,-10.852" fill="#ccc9e5" id="path412"/><path d="m 262.33,253.15 c 0,-5.512 3.151,-10.299 7.751,-12.633 0.982,-0.502 2.188,-0.106 2.689,0.875 0.5,0.983 0.106,2.188 -0.877,2.689 -3.305,1.684 -5.565,5.109 -5.565,9.068 0.011,5.613 4.552,10.156 10.168,10.166 5.614,-0.01 10.155,-4.553 10.166,-10.166 0.002,-4.004 -2.313,-7.463 -5.679,-9.125 h 0.002 c -0.991,-0.489 -1.4,-1.688 -0.91,-2.678 0.488,-0.992 1.688,-1.398 2.679,-0.91 4.685,2.309 7.906,7.138 7.908,12.713 -0.002,7.822 -6.343,14.166 -14.166,14.168 -7.827,-0.001 -14.166,-6.342 -14.166,-14.167 z" fill="#c091c1" id="path414"/></g><g transform="matrix(4.7628,0,0,4.7628,0,24)" stroke-width="0.044084" inkscape:label="egg4a" id="g424"><circle cx="276.32999" cy="229.49001" r="6" fill="#dbd5ea" id="circle418"/><path d="m 269.33,229.49 c 0.002,-3.866 3.134,-7 7.002,-7.002 3.866,0.002 6.998,3.134 7,7.002 -0.002,3.865 -3.134,6.998 -7,7 -3.868,-0.002 -7,-3.134 -7.002,-7 z m 2.003,0 c 0.004,2.761 2.235,4.992 4.999,4.998 2.759,-0.006 4.993,-2.239 4.998,-4.998 -0.005,-2.762 -2.239,-4.996 -4.998,-5 -2.764,0.004 -4.995,2.239 -4.999,5 z" fill="#c091c1" id="path420"/><circle cx="276.25" cy="230.16" r="2.8329999" fill="#7670b3" id="circle422"/></g><g transform="matrix(4.7628,0,0,4.7628,0,24)" stroke-width="0.044084" inkscape:label="egg3" id="g440"><circle cx="229.67" cy="252.82001" r="12.167" fill="#ccc9e5" id="circle426"/><path d="m 216.5,252.82 c 0,-7.272 5.892,-13.167 13.166,-13.171 7.272,0.004 13.165,5.897 13.165,13.171 0,7.27 -5.893,13.166 -13.165,13.166 -7.274,0 -13.166,-5.896 -13.166,-13.166 z m 1.998,0 c 0.012,6.165 5,11.153 11.168,11.166 6.168,-0.013 11.155,-5 11.166,-11.166 -0.011,-6.169 -5.001,-11.157 -11.166,-11.169 -6.168,0.012 -11.156,5 -11.168,11.169 z" fill="#c091c1" id="path428"/><circle cx="229.67" cy="247.16" r="6" fill="#dbd5ea" id="circle430"/><path d="m 222.67,247.16 c 0,-3.867 3.133,-7 7,-7.003 3.867,0.003 7,3.136 7,7.003 0,3.864 -3.133,6.997 -7,7 -3.867,-0.003 -7,-3.136 -7,-7 z m 2,0 c 0.005,2.759 2.239,4.993 5,4.997 2.761,-0.004 4.995,-2.238 4.999,-4.997 -0.004,-2.761 -2.238,-4.995 -4.999,-5.001 -2.761,0.006 -4.995,2.239 -5,5.001 z" fill="#c091c1" id="path432"/><circle cx="229.33" cy="246.82001" r="2.8329999" fill="#7670b3" id="circle434"/><path d="m 238.9,245.51 c -0.543,-0.875 -2.313,-0.583 -2.25,0.729 0.062,1.312 -1.709,-2.646 -1.709,-2.646 l -0.875,-2.75 4.688,2.688 z" fill="#c091c1" id="path436"/><path d="m 220.44,245.51 c 0.543,-0.875 2.313,-0.583 2.25,0.729 -0.062,1.312 1.709,-2.646 1.709,-2.646 l 0.875,-2.75 -4.688,2.688 z" fill="#c091c1" id="path438"/></g><g transform="matrix(4.7628,0,0,4.7628,0,24)" stroke-width="0.044084" inkscape:label="egg2" id="g456"><circle cx="187.16" cy="252.82001" r="8.6669998" fill="#ccc9e5" id="circle442"/><path d="m 177.49,252.82 c 0.002,-5.34 4.328,-9.668 9.667,-9.668 5.34,0 9.666,4.328 9.667,9.668 -0.002,5.338 -4.328,9.666 -9.667,9.668 -5.339,-0.002 -9.665,-4.33 -9.667,-9.668 z m 2.001,0 c 0.008,4.232 3.434,7.658 7.667,7.668 4.235,-0.01 7.659,-3.436 7.667,-7.668 -0.008,-4.234 -3.432,-7.66 -7.667,-7.667 -4.233,0.007 -7.659,3.433 -7.667,7.667 z" fill="#c091c1" id="path444"/><circle cx="187.17" cy="249.99001" r="6" fill="#dbd5ea" id="circle446"/><path d="m 180.17,249.99 c 0,-3.866 3.132,-7 7,-7.003 3.866,0.003 6.999,3.135 6.999,7.003 0,3.866 -3.132,6.997 -6.999,6.997 -3.868,10e-4 -7,-3.133 -7,-6.997 z m 1.999,0 c 0.006,2.76 2.239,4.993 5.001,4.999 2.76,-0.006 4.993,-2.239 4.999,-4.999 -0.006,-2.763 -2.239,-4.995 -4.999,-5.001 -2.762,0.006 -4.995,2.239 -5.001,5.001 z" fill="#c091c1" id="path448"/><circle cx="186.67" cy="250.49001" r="2.8329999" fill="#7670b3" id="circle450"/><path d="m 179.67,254.86 c 0.038,-1.028 1.153,-1.28 2.125,-0.396 0.458,0.418 0.369,-3.228 0.369,-3.228 l -2.237,-3.269 -1.107,5.1 z" fill="#c091c1" id="path452"/><path d="m 192.5,254.55 c 0.31,-0.979 1.788,-1.008 2.049,0.28 0.262,1.287 1.34,-3 1.34,-3 l -1.288,-3.746 -2.424,4.622 z" fill="#c091c1" id="path454"/></g><g transform="matrix(4.7628,0,0,4.7628,0,24)" stroke-width="0.044084" inkscape:label="egg1" id="g464"><circle cx="149.83" cy="252.82001" r="6" fill="#ccc9e5" id="circle458"/><path d="m 142.83,252.82 c 0.002,-3.865 3.133,-7 7,-7 3.866,0 6.999,3.135 7.001,7 -0.002,3.865 -3.135,6.998 -7.001,7.001 -3.867,-0.003 -6.999,-3.135 -7,-7.001 z m 2,0 c 0.006,2.762 2.24,4.994 5,4.998 2.761,-0.004 4.995,-2.236 4.999,-4.998 -0.004,-2.762 -2.238,-4.994 -4.999,-5 -2.761,0.006 -4.995,2.241 -5,5 z" fill="#c091c1" id="path460"/><circle cx="149.75" cy="252.91" r="2.8329999" fill="#7670b3" id="circle462"/></g><path d="m 738.23,1317 c -53.691,-0.1 -97.58,-38.136 -97.637,-85.73 0.0619,-47.614 43.951,-85.649 97.637,-85.73 h 501.13 c 1.7432,-0.3191 14.255,0.1143 14.436,-19.056 h 4.768 c 0.048,10.883 -4.0388,17.246 -8.6397,20.428 -4.5865,3.1911 -9.2541,3.3673 -10.564,3.3768 h -0.181 c 0,0 -0.062,0 -0.062,0.014 h -500.89 c -51.524,0.01 -92.784,36.507 -92.874,80.968 0.0905,44.461 41.351,80.944 92.874,80.963 h 1157.4 c 51.524,-0.019 92.784,-36.502 92.874,-80.963 -0.09,-44.461 -41.35,-80.958 -92.874,-80.982 l -506.04,0.014 c -7.4204,0.043 -12.412,-2.7291 -15.15,-6.6012 -2.7386,-3.8626 -3.3244,-8.3635 -3.3339,-11.878 0,-3.6531 0.6667,-6.3345 0.6953,-6.4488 l 4.6247,1.1287 c 0.029,0.01 -0.5525,2.2528 -0.5525,5.3058 0.3286,6.1488 1.4479,13.517 13.726,13.722 h 506.04 c 53.691,0.081 97.58,38.117 97.642,85.73 -0.062,47.599 -43.951,85.63 -97.642,85.73 z" fill="#f49ac1" inkscape:label="border" id="path466"/><polygon transform="matrix(4.7628,0,0,4.7628,0,24)" points="276.08,209.55 276.58,209.55 276.58,218.83 276.08,218.83 " stroke-width="0.20996" id="polygon468"/><path d="m 1426.6,1110.1 v -1.967 h 11.807 v 1.967 z m -23.609,0 v -1.967 h 11.807 v 1.967 z m -23.609,0 v -1.967 h 11.807 v 1.967 z m -23.609,0 v -1.967 h 11.807 v 1.967 z" id="path470"/><switch transform="matrix(4.7628,0,0,4.7628,0,-10.752391)" fill="#000000" font-family="sans-serif" font-size="10.667px" stroke-linecap="round" stroke-linejoin="round" stroke-width="0.79365" text-anchor="middle" style="-inkscape-stroke:none" id="switch484"><text x="272.39035" y="294.49185" stop-color="#000000" text-align="center" style="-inkscape-stroke:none" lang="en" systemLanguage="ru" xml:space="preserve" id="text474"><tspan x="272.39035" y="294.49185" stroke-width="0.79365" sodipodi:role="line" id="tspan472">Овуляция</tspan></text><text x="276.32999" y="294.49185" stop-color="#000000" text-align="center" style="-inkscape-stroke:none" lang="en" systemLanguage="he" xml:space="preserve" id="text478" inkscape:label="text484-he"><tspan x="276.32999" y="294.49185" stroke-width="0.79365" sodipodi:role="line" id="tspan476">ביוץ</tspan></text><text x="275.90347" y="294.49185" stop-color="#000000" text-align="center" style="-inkscape-stroke:none" lang="en" xml:space="preserve" id="text482-it" systemLanguage="it"><tspan x="275.90347" y="294.49185" stroke-width="0.79365" sodipodi:role="line" id="tspan480-it">OVULAZIONE</tspan></text><text x="275.90347" y="294.49185" stop-color="#000000" text-align="center" style="-inkscape-stroke:none" lang="en" xml:space="preserve" id="text482-pt" systemLanguage="pt"><tspan x="275.90347" y="294.49185" stroke-width="0.79365" sodipodi:role="line" id="tspan480-pt">OVULAÇÃO</tspan></text><text x="275.90347" y="294.49185" stop-color="#000000" text-align="center" style="-inkscape-stroke:none" lang="en" xml:space="preserve" id="text482"><tspan x="275.90347" y="294.49185" stroke-width="0.79365" sodipodi:role="line" id="tspan480">OVULATION</tspan></text></switch><switch transform="matrix(4.7628,0,0,4.7628,0,24)" fill="#000000" font-family="sans-serif" font-size="10.667px" stroke-linecap="round" stroke-linejoin="round" stroke-width="0.79365" style="-inkscape-stroke:none" id="switch502"><text x="36.925995" y="255.25482" stop-color="#000000" style="-inkscape-stroke:none" lang="en" systemLanguage="fr" xml:space="preserve" id="text488"><tspan x="36.925995" y="255.25482" stroke-width="0.79365" sodipodi:role="line" id="tspan486">CYCLE OVARIEN</tspan></text><text x="36.925995" y="255.25482" stop-color="#000000" style="-inkscape-stroke:none" lang="en" systemLanguage="ru" xml:space="preserve" id="text492"><tspan x="36.925995" y="255.25482" stroke-width="0.79365" sodipodi:role="line" id="tspan490">Уровень гормонов</tspan></text><text x="124.46269" y="255.25482" stop-color="#000000" text-align="end" text-anchor="end" style="-inkscape-stroke:none" lang="en" systemLanguage="he" xml:space="preserve" id="text496"><tspan x="124.46269" y="255.25482" stroke-width="0.79365" sodipodi:role="line" id="tspan494">מחזור חודש</tspan></text><text x="124.46269" y="255.25482" stop-color="#000000" text-align="end" text-anchor="end" style="-inkscape-stroke:none" lang="en" xml:space="preserve" id="text500-it" systemLanguage="it"><tspan x="124.46269" y="255.25482" stroke-width="0.79365" sodipodi:role="line" id="tspan498-it">CICLO OVARICO</tspan></text><text x="124.46269" y="255.25482" stop-color="#000000" text-align="end" text-anchor="end" style="-inkscape-stroke:none" lang="en" xml:space="preserve" id="text500-pt" systemLanguage="pt"><tspan x="124.46269" y="255.25482" stroke-width="0.79365" sodipodi:role="line" id="tspan498-pt">CICLO OVÁRICO</tspan></text><text x="124.46269" y="255.25482" stop-color="#000000" text-align="end" text-anchor="end" style="-inkscape-stroke:none" lang="en" xml:space="preserve" id="text500"><tspan x="124.46269" y="255.25482" stroke-width="0.79365" sodipodi:role="line" id="tspan498">OVARIAN CYCLE</tspan></text></switch><switch transform="matrix(4.7628,0,0,4.7628,0,24)" fill="#000000" font-family="sans-serif" font-size="10.667px" stroke-linecap="round" stroke-linejoin="round" stroke-width="0.79365" style="-inkscape-stroke:none" id="switch520"><text x="305.08118" y="231.70732" stop-color="#000000" style="-inkscape-stroke:none" lang="en" systemLanguage="fr" xml:space="preserve" id="text506"><tspan x="305.08118" y="231.70732" stroke-width="0.79365" sodipodi:role="line" id="tspan504">OVOCYTE</tspan></text><text x="305.08118" y="231.70732" stop-color="#000000" style="-inkscape-stroke:none" lang="en" systemLanguage="ru" xml:space="preserve" id="text510"><tspan x="305.08118" y="231.70732" stroke-width="0.79365" sodipodi:role="line" id="tspan508">Яйцеклетка</tspan></text><text x="305.08118" y="231.70732" stop-color="#000000" style="-inkscape-stroke:none" lang="en" systemLanguage="he" xml:space="preserve" id="text514"><tspan x="305.08118" y="231.70732" stroke-width="0.79365" sodipodi:role="line" id="tspan512">ביצית</tspan></text><text x="305.08118" y="231.70732" stop-color="#000000" style="-inkscape-stroke:none" lang="en" xml:space="preserve" id="text518-it" systemLanguage="it"><tspan x="305.08118" y="231.70732" stroke-width="0.79365" sodipodi:role="line" id="tspan516-it">UOVO</tspan></text><text x="305.08118" y="231.70732" stop-color="#000000" style="-inkscape-stroke:none" lang="en" xml:space="preserve" id="text518-pt" systemLanguage="pt"><tspan x="305.08118" y="231.70732" stroke-width="0.79365" sodipodi:role="line" id="tspan516-pt">ÓVULO</tspan></text><text x="305.08118" y="231.70732" stop-color="#000000" style="-inkscape-stroke:none" lang="en" xml:space="preserve" id="text518"><tspan x="305.08118" y="231.70732" stroke-width="0.79365" sodipodi:role="line" id="tspan516">OVUM</tspan></text></switch></g><metadata id="metadata524"><rdf:RDF><cc:Work rdf:about=""><cc:license rdf:resource="http://creativecommons.org/licenses/by-sa/4.0/"/><dc:title>Menstrual cycle</dc:title><dc:date>2009-12-08</dc:date><dc:creator><cc:Agent><dc:title>Isometrik; Kaldari; Begoon; Marnanel</dc:title></cc:Agent></dc:creator><dc:publisher><cc:Agent><dc:title>Wikipedia</dc:title></cc:Agent></dc:publisher><dc:description>Diagram of the human menstrual cycle</dc:description></cc:Work><cc:License rdf:about="http://creativecommons.org/licenses/by-sa/4.0/"><cc:permits rdf:resource="http://creativecommons.org/ns#Reproduction"/><cc:permits rdf:resource="http://creativecommons.org/ns#Distribution"/><cc:requires rdf:resource="http://creativecommons.org/ns#Notice"/><cc:requires rdf:resource="http://creativecommons.org/ns#Attribution"/><cc:permits rdf:resource="http://creativecommons.org/ns#DerivativeWorks"/><cc:requires rdf:resource="http://creativecommons.org/ns#ShareAlike"/></cc:License></rdf:RDF></metadata></svg>